<svg xmlns="http://www.w3.org/2000/svg" xmlns:xlink="http://www.w3.org/1999/xlink" width="808" height="348" viewBox="0 0 808 348">
  <defs>
    <clipPath id="clip-path">
      <rect id="Rectangle_307" data-name="Rectangle 307" width="1331.708" height="710.023" fill="none"/>
    </clipPath>
    <clipPath id="clip-path-2">
      <rect id="Rectangle_306" data-name="Rectangle 306" width="1333.708" height="710.023" fill="none"/>
    </clipPath>
    <clipPath id="clip-path-3">
      <rect id="Rectangle_305" data-name="Rectangle 305" width="155.106" height="148.048" fill="none"/>
    </clipPath>
    <clipPath id="clip-path-4">
      <path id="Path_85" data-name="Path 85" d="M-175.739,379.61H-58.265a9.407,9.407,0,0,1,9.4,9.4V509.883a9.407,9.407,0,0,1-9.4,9.4H-175.75a9.407,9.407,0,0,1-9.4-9.4V389.01a9.407,9.407,0,0,1,9.4-9.4Z" transform="translate(185.15 -379.61)" fill="none"/>
    </clipPath>
    <linearGradient id="linear-gradient" x1="-3.701" y1="1.625" x2="-3.696" y2="1.625" gradientUnits="objectBoundingBox">
      <stop offset="0" stop-color="#aa1e23"/>
      <stop offset="0.57" stop-color="#c8c8c8"/>
      <stop offset="0.69" stop-color="#cbcbcb"/>
      <stop offset="0.8" stop-color="#d6d6d6"/>
      <stop offset="0.91" stop-color="#e8e8e8"/>
      <stop offset="1" stop-color="#fff"/>
    </linearGradient>
    <clipPath id="clip-path-5">
      <rect id="Rectangle_337" data-name="Rectangle 337" width="930.359" height="393.455" transform="translate(-319 54)" fill="none"/>
    </clipPath>
    <clipPath id="clip-path-6">
      <rect id="Rectangle_336" data-name="Rectangle 336" width="940.359" height="708.455" transform="translate(-329)" fill="none"/>
    </clipPath>
    <clipPath id="clip-path-7">
      <rect id="Rectangle_309" data-name="Rectangle 309" width="168.783" height="158.065" fill="none"/>
    </clipPath>
    <clipPath id="clip-path-8">
      <path id="Path_86" data-name="Path 86" d="M360.939,3.3h131.2a9.385,9.385,0,0,1,9.379,9.379V143.621A9.385,9.385,0,0,1,492.143,153h-131.2a9.384,9.384,0,0,1-9.379-9.379V12.679A9.384,9.384,0,0,1,360.939,3.3Z" transform="translate(-351.56 -3.3)" fill="none"/>
    </clipPath>
    <linearGradient id="linear-gradient-2" x1="-6.039" y1="3.359" x2="-6.034" y2="3.359" gradientUnits="objectBoundingBox">
      <stop offset="0" stop-color="#545554"/>
      <stop offset="0.57" stop-color="#c8c8c8"/>
      <stop offset="0.69" stop-color="#cbcbcb"/>
      <stop offset="0.8" stop-color="#d6d6d6"/>
      <stop offset="0.91" stop-color="#e8e8e8"/>
      <stop offset="1" stop-color="#fff"/>
    </linearGradient>
    <clipPath id="clip-path-9">
      <rect id="Rectangle_311" data-name="Rectangle 311" width="218.24" height="207.439" fill="none"/>
    </clipPath>
    <clipPath id="clip-path-10">
      <path id="Path_87" data-name="Path 87" d="M260.379,53.8H441.04a9.385,9.385,0,0,1,9.379,9.379V243.485a9.385,9.385,0,0,1-9.379,9.379H260.379A9.385,9.385,0,0,1,251,243.485V63.179A9.385,9.385,0,0,1,260.379,53.8Z" transform="translate(-251 -53.8)" fill="none"/>
    </clipPath>
    <linearGradient id="linear-gradient-3" x1="-4.135" y1="2.378" x2="-4.131" y2="2.378" xlink:href="#linear-gradient-2"/>
    <clipPath id="clip-path-11">
      <rect id="Rectangle_313" data-name="Rectangle 313" width="141.492" height="132.448" fill="none"/>
    </clipPath>
    <clipPath id="clip-path-12">
      <path id="Path_88" data-name="Path 88" d="M75.43,167.07h103.9a9.385,9.385,0,0,1,9.379,9.379V281.774a9.385,9.385,0,0,1-9.379,9.379H75.419a9.385,9.385,0,0,1-9.379-9.379V176.449a9.385,9.385,0,0,1,9.379-9.379Z" transform="translate(-66.04 -167.07)" fill="none"/>
    </clipPath>
    <linearGradient id="linear-gradient-4" x1="-5.648" y1="3.06" x2="-5.642" y2="3.06" xlink:href="#linear-gradient-2"/>
    <clipPath id="clip-path-13">
      <rect id="Rectangle_316" data-name="Rectangle 316" width="121.302" height="112.069" fill="none"/>
    </clipPath>
    <clipPath id="clip-path-14">
      <rect id="Rectangle_315" data-name="Rectangle 315" width="102.481" height="103.704" rx="8.97" fill="none"/>
    </clipPath>
    <linearGradient id="linear-gradient-5" x1="-9.586" y1="3.558" x2="-9.579" y2="3.558" xlink:href="#linear-gradient-2"/>
    <clipPath id="clip-path-15">
      <rect id="Rectangle_319" data-name="Rectangle 319" width="164.559" height="158.065" fill="none"/>
    </clipPath>
    <clipPath id="clip-path-16">
      <rect id="Rectangle_318" data-name="Rectangle 318" width="145.738" height="149.7" rx="8.97" fill="none"/>
    </clipPath>
    <linearGradient id="linear-gradient-6" x1="-6.197" y1="2.344" x2="-6.192" y2="2.344" xlink:href="#linear-gradient-2"/>
    <clipPath id="clip-path-17">
      <rect id="Rectangle_322" data-name="Rectangle 322" width="178.078" height="171.25" fill="none"/>
    </clipPath>
    <clipPath id="clip-path-18">
      <rect id="Rectangle_321" data-name="Rectangle 321" width="159.257" height="162.886" rx="8.97" fill="none"/>
    </clipPath>
    <linearGradient id="linear-gradient-7" x1="-5.143" y1="1.692" x2="-5.138" y2="1.692" xlink:href="#linear-gradient-2"/>
    <clipPath id="clip-path-19">
      <rect id="Rectangle_324" data-name="Rectangle 324" width="205.996" height="199.806" fill="none"/>
    </clipPath>
    <clipPath id="clip-path-20">
      <path id="Path_89" data-name="Path 89" d="M113.769,203.18H282.186a9.384,9.384,0,0,1,9.379,9.379V385.242a9.384,9.384,0,0,1-9.379,9.379H113.769a9.385,9.385,0,0,1-9.379-9.379V212.559A9.385,9.385,0,0,1,113.769,203.18Z" transform="translate(-104.39 -203.18)" fill="none"/>
    </clipPath>
    <linearGradient id="linear-gradient-8" x1="-3.782" y1="1.907" x2="-3.778" y2="1.907" xlink:href="#linear-gradient-2"/>
    <clipPath id="clip-path-21">
      <rect id="Rectangle_326" data-name="Rectangle 326" width="154.803" height="147.735" fill="none"/>
    </clipPath>
    <clipPath id="clip-path-22">
      <path id="Path_90" data-name="Path 90" d="M444.3,379.11H561.523a9.385,9.385,0,0,1,9.379,9.379V509.1a9.384,9.384,0,0,1-9.379,9.379H444.3a9.384,9.384,0,0,1-9.379-9.379V388.5a9.384,9.384,0,0,1,9.379-9.379Z" transform="translate(-434.92 -379.11)" fill="none"/>
    </clipPath>
    <linearGradient id="linear-gradient-9" x1="-7.027" y1="1.618" x2="-7.022" y2="1.618" xlink:href="#linear-gradient-2"/>
    <clipPath id="clip-path-23">
      <rect id="Rectangle_328" data-name="Rectangle 328" width="213.054" height="207.439" fill="none"/>
    </clipPath>
    <clipPath id="clip-path-24">
      <path id="Path_91" data-name="Path 91" d="M294.849,430.94H470.324a9.384,9.384,0,0,1,9.379,9.379V620.625A9.385,9.385,0,0,1,470.324,630H294.849a9.384,9.384,0,0,1-9.379-9.379V440.319a9.384,9.384,0,0,1,9.379-9.379Z" transform="translate(-285.47 -430.94)" fill="none"/>
    </clipPath>
    <linearGradient id="linear-gradient-10" x1="-4.316" y1="0.985" x2="-4.312" y2="0.985" xlink:href="#linear-gradient-2"/>
    <clipPath id="clip-path-25">
      <rect id="Rectangle_331" data-name="Rectangle 331" width="162.028" height="158.065" fill="none"/>
    </clipPath>
    <clipPath id="clip-path-26">
      <rect id="Rectangle_330" data-name="Rectangle 330" width="143.207" height="149.7" rx="8.97" fill="none"/>
    </clipPath>
    <linearGradient id="linear-gradient-11" x1="-5.255" y1="1.391" x2="-5.25" y2="1.391" xlink:href="#linear-gradient-2"/>
    <clipPath id="clip-path-27">
      <rect id="Rectangle_333" data-name="Rectangle 333" width="167.183" height="161.328" fill="none"/>
    </clipPath>
    <clipPath id="clip-path-28">
      <path id="Path_92" data-name="Path 92" d="M78.6,461.03H208.192a9.385,9.385,0,0,1,9.379,9.379v134.2a9.384,9.384,0,0,1-9.379,9.379H78.6a9.384,9.384,0,0,1-9.379-9.379v-134.2A9.384,9.384,0,0,1,78.6,461.03Z" transform="translate(-69.22 -461.03)" fill="none"/>
    </clipPath>
    <linearGradient id="linear-gradient-12" x1="-4.614" y1="1.089" x2="-4.609" y2="1.089" xlink:href="#linear-gradient-2"/>
    <clipPath id="clip-path-29">
      <rect id="Rectangle_335" data-name="Rectangle 335" width="167.183" height="161.735" fill="none"/>
    </clipPath>
    <clipPath id="clip-path-30">
      <path id="Path_93" data-name="Path 93" d="M367.439,534.18H497.032a9.384,9.384,0,0,1,9.379,9.379v134.6a9.384,9.384,0,0,1-9.379,9.379H367.439a9.384,9.384,0,0,1-9.379-9.379v-134.6A9.384,9.384,0,0,1,367.439,534.18Z" transform="translate(-358.06 -534.18)" fill="none"/>
    </clipPath>
    <linearGradient id="linear-gradient-13" x1="-6.023" y1="0.729" x2="-6.018" y2="0.729" xlink:href="#linear-gradient-2"/>
    <clipPath id="clip-SUGCON-justification-letter-chatbox-artwork">
      <rect width="808" height="348"/>
    </clipPath>
  </defs>
  <g id="SUGCON-justification-letter-chatbox-artwork" clip-path="url(#clip-SUGCON-justification-letter-chatbox-artwork)">
    <g id="Group_137" data-name="Group 137" transform="translate(-1112 62.154)">
      <g id="SUGCON-Chat-Box-Artwork" transform="translate(1277.616 -163.134)" style="isolation: isolate">
        <g id="Light" transform="translate(-615.99 2.98)">
          <g id="Group_328" data-name="Group 328" clip-path="url(#clip-path)">
            <g id="Group_327" data-name="Group 327" clip-path="url(#clip-path-2)">
              <g id="Group_326" data-name="Group 326" transform="translate(441.092 386.49)" opacity="0.3" style="mix-blend-mode: screen;isolation: isolate">
                <g id="Group_325" data-name="Group 325" transform="translate(0)" clip-path="url(#clip-path-3)">
                  <g id="Group_324" data-name="Group 324" transform="translate(9.4 7.319)" clip-path="url(#clip-path-4)">
                    <rect id="Rectangle_304" data-name="Rectangle 304" width="195.132" height="195.132" transform="translate(-69.825 69.832) rotate(-45)" fill="url(#linear-gradient)"/>
                  </g>
                </g>
              </g>
            </g>
          </g>
          <g id="Group_366" data-name="Group 366" transform="translate(647.015 0.335)" clip-path="url(#clip-path-5)">
            <g id="Group_365" data-name="Group 365" transform="translate(0)" clip-path="url(#clip-path-6)">
              <g id="Group_331" data-name="Group 331" transform="translate(355.257 -7.319)" opacity="0.5" style="mix-blend-mode: screen;isolation: isolate">
                <g id="Group_330" data-name="Group 330" transform="translate(0 0)" clip-path="url(#clip-path-7)">
                  <g id="Group_329" data-name="Group 329" transform="translate(9.411 7.319)" clip-path="url(#clip-path-8)">
                    <rect id="Rectangle_308" data-name="Rectangle 308" width="211.893" height="211.893" transform="translate(-74.847 74.845) rotate(-45)" fill="url(#linear-gradient-2)"/>
                  </g>
                </g>
              </g>
              <g id="Group_334" data-name="Group 334" transform="translate(250.111 45.484)" opacity="0.5" style="mix-blend-mode: screen;isolation: isolate">
                <g id="Group_333" data-name="Group 333" clip-path="url(#clip-path-9)">
                  <g id="Group_332" data-name="Group 332" transform="translate(9.411 7.319)" clip-path="url(#clip-path-10)">
                    <rect id="Rectangle_310" data-name="Rectangle 310" width="281.772" height="281.772" transform="translate(-99.527 99.529) rotate(-45)" fill="url(#linear-gradient-3)"/>
                  </g>
                </g>
              </g>
              <g id="Group_337" data-name="Group 337" transform="translate(56.724 163.921)" opacity="0.5" style="mix-blend-mode: screen;isolation: isolate">
                <g id="Group_336" data-name="Group 336" clip-path="url(#clip-path-11)">
                  <g id="Group_335" data-name="Group 335" transform="translate(9.4 7.319)" clip-path="url(#clip-path-12)">
                    <rect id="Rectangle_312" data-name="Rectangle 312" width="174.481" height="174.481" transform="translate(-62.038 62.039) rotate(-45)" fill="url(#linear-gradient-4)"/>
                  </g>
                </g>
              </g>
              <g id="Group_340" data-name="Group 340" transform="translate(465.34 174.115)" opacity="0.5" style="mix-blend-mode: screen;isolation: isolate">
                <g id="Group_339" data-name="Group 339" clip-path="url(#clip-path-13)">
                  <g id="Group_338" data-name="Group 338" transform="translate(9.411 7.319)" clip-path="url(#clip-path-14)">
                    <rect id="Rectangle_314" data-name="Rectangle 314" width="145.79" height="145.79" transform="translate(-51.853 51.847) rotate(-45)" fill="url(#linear-gradient-5)"/>
                  </g>
                </g>
              </g>
              <g id="Group_343" data-name="Group 343" transform="translate(370.837 213.159)" opacity="0.5" style="mix-blend-mode: screen;isolation: isolate">
                <g id="Group_342" data-name="Group 342" clip-path="url(#clip-path-15)">
                  <g id="Group_341" data-name="Group 341" transform="translate(9.411 7.319)" clip-path="url(#clip-path-16)">
                    <rect id="Rectangle_317" data-name="Rectangle 317" width="208.913" height="208.913" transform="translate(-74.85 74.849) rotate(-45)" fill="url(#linear-gradient-6)"/>
                  </g>
                </g>
              </g>
              <g id="Group_346" data-name="Group 346" transform="translate(250.111 320.533)" opacity="0.5" style="mix-blend-mode: screen;isolation: isolate">
                <g id="Group_345" data-name="Group 345" clip-path="url(#clip-path-17)">
                  <g id="Group_344" data-name="Group 344" transform="translate(9.411 7.319)" clip-path="url(#clip-path-18)">
                    <rect id="Rectangle_320" data-name="Rectangle 320" width="227.787" height="227.787" transform="translate(-81.441 81.439) rotate(-45)" fill="url(#linear-gradient-7)"/>
                  </g>
                </g>
              </g>
              <g id="Group_349" data-name="Group 349" transform="translate(96.803 201.678)" opacity="0.5" style="mix-blend-mode: screen;isolation: isolate">
                <g id="Group_348" data-name="Group 348" clip-path="url(#clip-path-19)">
                  <g id="Group_347" data-name="Group 347" transform="translate(9.421 7.319)" clip-path="url(#clip-path-20)">
                    <rect id="Rectangle_323" data-name="Rectangle 323" width="267.729" height="267.729" transform="translate(-95.723 95.713) rotate(-45)" fill="url(#linear-gradient-8)"/>
                  </g>
                </g>
              </g>
              <g id="Group_352" data-name="Group 352" transform="translate(509.24 385.712)" opacity="0.5" style="mix-blend-mode: screen;isolation: isolate">
                <g id="Group_351" data-name="Group 351" clip-path="url(#clip-path-21)">
                  <g id="Group_350" data-name="Group 350" transform="translate(9.421 7.319)" clip-path="url(#clip-path-22)">
                    <rect id="Rectangle_325" data-name="Rectangle 325" width="194.704" height="194.704" transform="translate(-69.687 69.681) rotate(-45)" fill="url(#linear-gradient-9)"/>
                  </g>
                </g>
              </g>
              <g id="Group_355" data-name="Group 355" transform="translate(286.142 439.827)" opacity="0.5" style="mix-blend-mode: screen;isolation: isolate">
                <g id="Group_354" data-name="Group 354" clip-path="url(#clip-path-23)">
                  <g id="Group_353" data-name="Group 353" transform="translate(9.421 7.319)" clip-path="url(#clip-path-24)">
                    <rect id="Rectangle_327" data-name="Rectangle 327" width="278.112" height="278.112" transform="translate(-99.535 99.536) rotate(-45)" fill="url(#linear-gradient-10)"/>
                  </g>
                </g>
              </g>
              <g id="Group_358" data-name="Group 358" transform="translate(-115.96 347.019)" opacity="0.5" style="mix-blend-mode: screen;isolation: isolate">
                <g id="Group_357" data-name="Group 357" clip-path="url(#clip-path-25)">
                  <g id="Group_356" data-name="Group 356" transform="translate(9.411 7.319)" clip-path="url(#clip-path-26)">
                    <rect id="Rectangle_329" data-name="Rectangle 329" width="207.115" height="207.115" transform="translate(-74.85 74.861) rotate(-45)" fill="url(#linear-gradient-11)"/>
                  </g>
                </g>
              </g>
              <g id="Group_361" data-name="Group 361" transform="translate(60.029 471.289)" opacity="0.5" style="mix-blend-mode: screen;isolation: isolate">
                <g id="Group_360" data-name="Group 360" clip-path="url(#clip-path-27)">
                  <g id="Group_359" data-name="Group 359" transform="translate(9.421 7.319)" clip-path="url(#clip-path-28)">
                    <rect id="Rectangle_332" data-name="Rectangle 332" width="213.065" height="213.065" transform="translate(-76.489 76.482) rotate(-45)" fill="url(#linear-gradient-12)"/>
                  </g>
                </g>
              </g>
              <g id="Group_364" data-name="Group 364" transform="translate(362.054 547.776)" opacity="0.5" style="mix-blend-mode: screen;isolation: isolate">
                <g id="Group_363" data-name="Group 363" clip-path="url(#clip-path-29)">
                  <g id="Group_362" data-name="Group 362" transform="translate(9.411 7.319)" clip-path="url(#clip-path-30)">
                    <rect id="Rectangle_334" data-name="Rectangle 334" width="213.347" height="213.347" transform="translate(-76.68 76.689) rotate(-45)" fill="url(#linear-gradient-13)"/>
                  </g>
                </g>
              </g>
              <path id="Path_94" data-name="Path 94" d="M413.108,203.338,386.761,177.49H312.349a4.741,4.741,0,0,1-4.709-4.761V102.2a4.741,4.741,0,0,1,4.709-4.761H408.4a4.741,4.741,0,0,1,4.709,4.761ZM312.349,99.56a2.619,2.619,0,0,0-2.589,2.641v70.527a2.619,2.619,0,0,0,2.589,2.641h75.278l23.361,22.919V102.2A2.619,2.619,0,0,0,408.4,99.56Z" transform="translate(11.153 1.042)" fill="#eb1f1f"/>
              <path id="Path_95" data-name="Path 95" d="M363.478,282.12l-1.817-1.82-32.144-31.7H232.208a5.877,5.877,0,0,1-5.828-5.912V150.122a5.877,5.877,0,0,1,5.828-5.912H357.65a5.75,5.75,0,0,1,4.128,1.735,5.917,5.917,0,0,1,1.7,4.177ZM232.208,146.33a3.755,3.755,0,0,0-3.708,3.792V242.69a3.755,3.755,0,0,0,3.708,3.792h98.179l30.971,30.542v-126.9a3.755,3.755,0,0,0-3.708-3.792Z" transform="translate(7.446 3.176)" fill="#eb1f1f"/>
              <path id="Path_96" data-name="Path 96" d="M156.356,370.791l-37.914-37.446H9.2a6.3,6.3,0,0,1-4.535-1.918,6.536,6.536,0,0,1-1.868-4.6V222.768a6.535,6.535,0,0,1,1.868-4.6A6.3,6.3,0,0,1,9.2,216.25h140.75a6.3,6.3,0,0,1,4.535,1.918,6.536,6.536,0,0,1,1.868,4.6ZM9.2,218.37a4.347,4.347,0,0,0-4.283,4.4V326.827a4.347,4.347,0,0,0,4.283,4.4h110.11l34.923,34.492V222.768a4.347,4.347,0,0,0-4.283-4.4Z" transform="translate(-2.752 6.462)" fill="#eb1f1f"/>
              <path id="Path_97" data-name="Path 97" d="M592.008,308.586,565.664,283H491.249a4.72,4.72,0,0,1-4.709-4.72V208.44a4.72,4.72,0,0,1,4.709-4.72H587.3a4.72,4.72,0,0,1,4.709,4.72ZM491.249,205.84a2.6,2.6,0,0,0-2.589,2.6v69.836a2.6,2.6,0,0,0,2.589,2.6h75.275l.309.3,23.056,22.4V208.44a2.6,2.6,0,0,0-2.589-2.6Z" transform="translate(69.325 40.94)" fill="#eb1f1f"/>
              <path id="Path_98" data-name="Path 98" d="M276.834,524.491l-1.5-.01-28.678-27.936H160.7a5.29,5.29,0,0,1-5.274-5.295V410.425a5.29,5.29,0,0,1,5.274-5.295H271.56a5.29,5.29,0,0,1,5.274,5.295ZM160.7,407.25a3.168,3.168,0,0,0-3.154,3.175v80.826a3.168,3.168,0,0,0,3.154,3.175h86.809l27.2,26.5v-110.5a3.168,3.168,0,0,0-3.154-3.175Z" transform="translate(4.21 15.077)" fill="#eb1f1f"/>
              <path id="Path_99" data-name="Path 99" d="M444.4,505.361,391.729,453.61H238.008a8.635,8.635,0,0,1-8.567-8.683V299.483a8.641,8.641,0,0,1,8.567-8.693h197.83a8.641,8.641,0,0,1,8.567,8.693ZM238.008,292.91a6.519,6.519,0,0,0-6.447,6.573V444.928a6.513,6.513,0,0,0,6.447,6.563H392.6l.309.3,49.38,48.512V299.483a6.519,6.519,0,0,0-6.447-6.573Z" transform="translate(7.586 9.862)" fill="#eb1f1f"/>
              <path id="Path_100" data-name="Path 100" d="M545.092,617.9,496.18,569.9H353.8a8.08,8.08,0,0,1-8.024-8.118V427.148a8.08,8.08,0,0,1,8.024-8.118H537.068a8.08,8.08,0,0,1,8.024,8.118ZM353.8,421.15a5.958,5.958,0,0,0-5.9,6V561.781a5.958,5.958,0,0,0,5.9,6H497.047l45.925,45.075V427.148a5.958,5.958,0,0,0-5.9-6Z" transform="translate(12.893 -5.028)" fill="#eb1f1f"/>
            </g>
          </g>
        </g>
      </g>
    </g>
  </g>
</svg>
