<svg width="216" height="217" xmlns="http://www.w3.org/2000/svg" xmlns:svg="http://www.w3.org/2000/svg">
 <defs>
  <style>.cls-1{fill:#eb1f1f;stroke-width:0px;}</style>
 </defs>
 <g class="layer">
  <title>Layer 1</title>
  <g id="Path_116">
   <path class="cls-1" d="m215.93,216.82l-52.9,-52.25l-154.36,0c-4.79,-0.05 -8.65,-3.99 -8.6,-8.77l0,-146.86c-0.05,-4.77 3.81,-8.71 8.59,-8.76l198.67,0c4.79,0.05 8.65,3.99 8.6,8.77l0,207.87zm-52.46,-54.37l0.44,0l0.31,0.31l49.6,48.99l0,-202.81c0.03,-3.62 -2.88,-6.6 -6.49,-6.64l-198.66,0c-3.6,0.04 -6.52,3.02 -6.48,6.63l0,146.88c-0.03,3.62 2.88,6.6 6.49,6.64l154.79,0z" id="svg_1"/>
  </g>
 </g>
</svg>