<svg version="1.1" id="Layer_1" xmlns="http://www.w3.org/2000/svg" xmlns:xlink="http://www.w3.org/1999/xlink" x="0" y="0" viewBox="0 0 24 24" style="enable-background:new 0 0 24 24" xml:space="preserve">
  <style>
    .st1{fill:#ff1f38}
  </style>
  <defs>
    <path id="SVGID_1_" d="M0 0h24v24H0z"/>
  </defs>
  <clipPath id="SVGID_00000076601368015807254510000012566403806774356926_">
    <use xlink:href="#SVGID_1_" style="overflow:visible"/>
  </clipPath>
  <g style="clip-path:url(#SVGID_00000076601368015807254510000012566403806774356926_)">
    <path class="st1" d="m6.2 4.8-.7-.7-1.4 1.4.7.7 1.4-1.4zm3.6 6.4c.4.4 1 .4 1.4 0s.4-1 0-1.4l-1.4 1.4zm-5-5 5 5 1.4-1.4-5-5-1.4 1.4zM17.8 19.2l.7.7 1.4-1.4-.7-.7-1.4 1.4zm-3.6-6.4c-.4-.4-1-.4-1.4 0s-.4 1 0 1.4l1.4-1.4zm5 5-5-5-1.4 1.4 5 5 1.4-1.4zM19.2 6.2l.7-.7-1.4-1.4-.7.7 1.4 1.4zm-6.4 3.6c-.4.4-.4 1 0 1.4s1 .4 1.4 0l-1.4-1.4zm5-5-5 5 1.4 1.4 5-5-1.4-1.4zM4.8 17.8l-.7.7 1.4 1.4.7-.7-1.4-1.4zm6.4-3.6c.4-.4.4-1 0-1.4s-1-.4-1.4 0l1.4 1.4zm-5 5 5-5-1.4-1.4-5 5 1.4 1.4z"/>
  </g>
</svg>
