<svg version="1.1" id="Layer_1" xmlns="http://www.w3.org/2000/svg" x="0" y="0" viewBox="0 0 23.3 23.3" style="enable-background:new 0 0 23.3 23.3" xml:space="preserve">
  <style>
    .st0{fill:#000}
  </style>
  <path class="st0" d="M22.4 0H16c-.5 0-.9.4-.9.9s.4.9.9.9h4.3l-9.1 9.1c-.4.4-.4.9 0 1.3.2.2.4.3.7.3.2 0 .5-.1.7-.3l9-9v4c0 .5.4.9.9.9s.9-.4.9-.9V.9c-.1-.5-.5-.9-1-.9z"/>
  <path class="st0" d="M19.2 9.3c-.5 0-.9.4-.9.9v7.3c0 .3-.3.6-.6.6H5.8c-.3 0-.6-.3-.6-.6V5.7c0-.3.3-.6.6-.6h7.4c.5 0 .9-.4.9-.9s-.4-.9-.9-.9H5.8c-1.4 0-2.5 1.1-2.5 2.5v11.8c0 1.4 1.1 2.5 2.5 2.5h11.8c1.4 0 2.5-1.1 2.5-2.5v-7.3c0-.6-.4-1-.9-1z"/>
  <path style="fill:none" d="M0 0h23.3v23.3H0z"/>
</svg>
