<?xml version="1.0" encoding="utf-8"?>
<svg version="1.1" id="Layer_1" xmlns="http://www.w3.org/2000/svg" xmlns:xlink="http://www.w3.org/1999/xlink" x="0px" y="0px"
	viewBox="0 0 24 24" style="enable-background:new 0 0 24 24;" xml:space="preserve">
<style type="text/css">
	.st0{fill:#1E1C22;}
</style>
<g>
	<path class="st0" d="M9,10.8H4C3,10.8,2.2,10,2.2,9V4C2.2,3,3,2.2,4,2.2h5c1,0,1.8,0.8,1.8,1.8v5C10.8,10,10,10.8,9,10.8z M4,3.8
		C3.9,3.8,3.8,3.9,3.8,4v5c0,0.1,0.1,0.2,0.2,0.2h5c0.1,0,0.2-0.1,0.2-0.2V4c0-0.1-0.1-0.2-0.2-0.2H4z"/>
</g>
<g>
	<path class="st0" d="M20,10.8h-5c-1,0-1.8-0.8-1.8-1.8V4c0-1,0.8-1.8,1.8-1.8h5c1,0,1.8,0.8,1.8,1.8v5C21.8,10,21,10.8,20,10.8z
		M15,3.8c-0.1,0-0.2,0.1-0.2,0.2v5c0,0.1,0.1,0.2,0.2,0.2h5c0.1,0,0.2-0.1,0.2-0.2V4c0-0.1-0.1-0.2-0.2-0.2H15z"/>
</g>
<g>
	<path class="st0" d="M9,21.8H4c-1,0-1.8-0.8-1.8-1.8v-5c0-1,0.8-1.8,1.8-1.8h5c1,0,1.8,0.8,1.8,1.8v5C10.8,21,10,21.8,9,21.8z
		M4,14.8c-0.1,0-0.2,0.1-0.2,0.2v5c0,0.1,0.1,0.2,0.2,0.2h5c0.1,0,0.2-0.1,0.2-0.2v-5c0-0.1-0.1-0.2-0.2-0.2H4z"/>
</g>
<g>
	<path class="st0" d="M20,21.8h-5c-1,0-1.8-0.8-1.8-1.8v-5c0-1,0.8-1.8,1.8-1.8h5c1,0,1.8,0.8,1.8,1.8v5C21.8,21,21,21.8,20,21.8z
		M15,14.8c-0.1,0-0.2,0.1-0.2,0.2v5c0,0.1,0.1,0.2,0.2,0.2h5c0.1,0,0.2-0.1,0.2-0.2v-5c0-0.1-0.1-0.2-0.2-0.2H15z"/>
</g>
</svg>