<?xml version="1.0" encoding="utf-8"?>
<svg viewBox="0 0 24 24" xmlns="http://www.w3.org/2000/svg">
  <path fill="#282828" d="M 21.11 22.555 L 2.924 22.555 C 2.18 22.555 1.486 22.145 1.025 21.401 C 0.666 20.811 0.666 19.939 1.025 19.195 L 2.051 17.093 C 2.77 15.656 4.539 14.759 5.874 14.656 C 6.309 14.629 7.181 14.449 8.052 14.245 C 8.695 14.091 9.053 13.988 9.259 13.911 C 9.207 13.731 9.106 13.527 8.976 13.347 C 7.438 12.141 6.515 10.115 6.515 7.935 C 6.515 4.344 8.976 1.445 12.028 1.445 C 15.081 1.445 17.543 4.37 17.543 7.935 C 17.543 10.115 16.62 12.141 15.081 13.347 C 14.953 13.527 14.851 13.706 14.8 13.887 C 15.004 13.962 15.364 14.064 15.98 14.219 C 16.748 14.398 17.672 14.552 18.134 14.604 C 19.492 14.733 21.236 15.579 21.956 17.014 L 22.956 19.042 C 23.341 19.811 23.341 20.786 22.956 21.376 C 22.547 22.119 21.826 22.555 21.11 22.555 Z M 12.028 2.498 C 9.54 2.498 7.541 4.961 7.541 7.96 C 7.541 9.858 8.336 11.576 9.643 12.603 C 9.67 12.629 9.721 12.654 9.747 12.706 C 10.106 13.168 10.311 13.68 10.311 14.219 C 10.311 14.371 10.261 14.526 10.131 14.629 C 10.028 14.707 9.773 14.936 8.285 15.297 C 7.591 15.45 6.541 15.656 5.95 15.707 C 4.898 15.809 3.488 16.528 2.974 17.581 L 1.973 19.682 C 1.77 20.119 1.744 20.631 1.925 20.915 C 2.128 21.248 2.513 21.581 2.948 21.581 L 21.136 21.581 C 21.571 21.581 21.956 21.248 22.159 20.915 C 22.314 20.657 22.34 20.041 22.11 19.579 L 21.11 17.554 C 20.596 16.528 19.186 15.809 18.134 15.707 C 17.62 15.656 16.646 15.501 15.825 15.297 C 14.337 14.936 14.081 14.707 13.979 14.656 C 13.876 14.552 13.799 14.398 13.799 14.245 C 13.799 13.706 14.004 13.194 14.363 12.731 C 14.389 12.706 14.414 12.654 14.467 12.629 C 15.774 11.628 16.569 9.884 16.569 8.012 C 16.516 4.961 14.518 2.498 12.028 2.498 Z" style=""/>
</svg>