<svg xmlns="http://www.w3.org/2000/svg" width="176.385" height="74.549" viewBox="0 0 176.385 74.549">
    <defs>
        <style>
            .cls-1{fill:none}.cls-2{fill:#fff}.cls-3{clip-path:url(#clip-path)}.cls-4{fill:#aa181b}.cls-5{fill:#e71a18}
        </style>
        <clipPath id="clip-path">
            <rect id="Rectangle_12" width="61.077" height="61.077" class="cls-1" data-name="Rectangle 12" rx="10.416"/>
        </clipPath>
    </defs>
    <g id="Group_115" data-name="Group 115" transform="translate(-92 -1978.779)">
        <g id="Group_53" data-name="Group 53" transform="translate(164.246 2033.257)">
            <g id="Group_1" data-name="Group 1" transform="translate(0 .5)">
                <path id="Path_1" d="M-.151-.356a3.835 3.835 0 0 1-1.308-.229 3.088 3.088 0 0 1-1.044-.6l-.377.795A3.19 3.19 0 0 0-1.7.26 4.888 4.888 0 0 0-.151.508 3.848 3.848 0 0 0 1.376.241 2.064 2.064 0 0 0 2.3-.494a1.823 1.823 0 0 0 .305-1.021 1.552 1.552 0 0 0-.351-1.069 2.155 2.155 0 0 0-.839-.591 9.558 9.558 0 0 0-1.291-.387 9.434 9.434 0 0 1-.982-.271 1.7 1.7 0 0 1-.606-.356.777.777 0 0 1-.244-.6.971.971 0 0 1 .433-.811 2.2 2.2 0 0 1 1.3-.315 3.542 3.542 0 0 1 1 .149 3.61 3.61 0 0 1 .957.431l.335-.815a3.324 3.324 0 0 0-1.048-.467A4.745 4.745 0 0 0 .023-6.78a3.7 3.7 0 0 0-1.518.274 2.07 2.07 0 0 0-.911.735 1.822 1.822 0 0 0-.3 1.026 1.587 1.587 0 0 0 .351 1.086 2.125 2.125 0 0 0 .845.594 9.808 9.808 0 0 0 1.3.387c.428.1.758.193.993.276a1.6 1.6 0 0 1 .589.351.787.787 0 0 1 .241.6.925.925 0 0 1-.438.8 2.347 2.347 0 0 1-1.325.3" class="cls-2" data-name="Path 1" transform="translate(2.88 6.78)"/>
            </g>
            <path id="Path_3" d="M11.023-18.674h-.978v5.4h.978z" class="cls-2" data-name="Path 3" transform="translate(-3.112 20.986)"/>
            <g id="Group_3" data-name="Group 3" transform="translate(6.761)">
                <path id="Path_4" d="M-.037-.071a.646.646 0 0 0 .474-.188.634.634 0 0 0 .188-.463.581.581 0 0 0-.188-.442.663.663 0 0 0-.474-.18.648.648 0 0 0-.474.188A.626.626 0 0 0-.7-.7a.609.609 0 0 0 .188.45.652.652 0 0 0 .474.183" class="cls-2" data-name="Path 4" transform="translate(.698 1.344)"/>
            </g>
            <g id="Group_4" data-name="Group 4" transform="translate(9.101 1.13)">
                <path id="Path_5" d="M-.152-.322a.815.815 0 0 1-.627-.235A.949.949 0 0 1-1-1.228V-4.15H.551v-.8H-1v-1.185h-.978v1.182h-.912v.8h.915v2.964A1.661 1.661 0 0 0-1.526.065 1.724 1.724 0 0 0-.264.5 2.253 2.253 0 0 0 .388.4 1.411 1.411 0 0 0 .917.125l-.305-.7a1.175 1.175 0 0 1-.764.254" class="cls-2" data-name="Path 5" transform="translate(2.89 6.135)"/>
            </g>
            <g id="Group_5" data-name="Group 5" transform="translate(13.509 2.262)">
                <path id="Path_6" d="M-.161-.305a3.166 3.166 0 0 0 1.217-.224 2.37 2.37 0 0 0 .911-.652l-.54-.632a2 2 0 0 1-1.557.651 2.05 2.05 0 0 1-1.328-.43 1.7 1.7 0 0 1-.626-1.146h4.377a2.81 2.81 0 0 0 .019-.3 3.01 3.01 0 0 0-.339-1.447 2.472 2.472 0 0 0-.948-.981 2.7 2.7 0 0 0-1.38-.351 2.757 2.757 0 0 0-1.39.351 2.514 2.514 0 0 0-.967.981 2.873 2.873 0 0 0-.351 1.417A2.812 2.812 0 0 0-2.7-1.639a2.525 2.525 0 0 0 1.022.984 3.217 3.217 0 0 0 1.517.35M-1.53-4.561a1.693 1.693 0 0 1 1.176-.428 1.667 1.667 0 0 1 1.175.433 1.73 1.73 0 0 1 .555 1.113h-3.461a1.726 1.726 0 0 1 .555-1.118" class="cls-2" data-name="Path 6" transform="translate(3.062 5.812)"/>
            </g>
            <g id="Group_6" data-name="Group 6" transform="translate(19.841 2.262)">
                <path id="Path_7" d="M-.158-.305a2.758 2.758 0 0 0 1.308-.3 2.142 2.142 0 0 0 .893-.858L1.3-1.934a1.657 1.657 0 0 1-.631.579 1.787 1.787 0 0 1-.834.193 1.923 1.923 0 0 1-.956-.238 1.676 1.676 0 0 1-.661-.666 2.035 2.035 0 0 1-.239-1 2.032 2.032 0 0 1 .239-.994 1.685 1.685 0 0 1 .661-.665 1.914 1.914 0 0 1 .953-.235 1.822 1.822 0 0 1 .834.193 1.674 1.674 0 0 1 .631.58l.745-.478a2.132 2.132 0 0 0-.893-.857 2.823 2.823 0 0 0-1.307-.29 3.031 3.031 0 0 0-1.471.351 2.543 2.543 0 0 0-1.014.978 2.749 2.749 0 0 0-.366 1.419 2.749 2.749 0 0 0 .366 1.419 2.608 2.608 0 0 0 1.014.984 2.992 2.992 0 0 0 1.471.356" class="cls-2" data-name="Path 7" transform="translate(3.008 5.812)"/>
            </g>
            <g id="Group_7" data-name="Group 7" transform="translate(25.675 2.262)">
                <path id="Path_8" d="M-.235-.019A2.918 2.918 0 0 0-1.676-.37a2.948 2.948 0 0 0-1.446.351 2.522 2.522 0 0 0-1 .978 2.784 2.784 0 0 0-.361 1.419A2.786 2.786 0 0 0-4.125 3.8a2.594 2.594 0 0 0 1 .984 2.93 2.93 0 0 0 1.446.356 2.9 2.9 0 0 0 1.44-.356 2.6 2.6 0 0 0 1-.984 2.777 2.777 0 0 0 .362-1.419A2.775 2.775 0 0 0 .761.958a2.524 2.524 0 0 0-1-.978M-.1 3.369a1.683 1.683 0 0 1-.646.674 1.832 1.832 0 0 1-.93.238 1.835 1.835 0 0 1-.932-.238 1.726 1.726 0 0 1-.651-.674 2.014 2.014 0 0 1-.24-.991 2.03 2.03 0 0 1 .24-.994 1.706 1.706 0 0 1 .651-.666 1.842 1.842 0 0 1 .932-.235 1.84 1.84 0 0 1 .93.235 1.663 1.663 0 0 1 .646.666 2.059 2.059 0 0 1 .235.994 2.043 2.043 0 0 1-.235.991" class="cls-2" data-name="Path 8" transform="translate(4.486 .37)"/>
            </g>
            <g id="Group_8" data-name="Group 8" transform="translate(32.74 2.262)">
                <path id="Path_9" d="M0 0v5.4h.978V2.706a1.873 1.873 0 0 1 .453-1.35A1.645 1.645 0 0 1 2.678.884c.095 0 .17 0 .224.008v-.944A2.732 2.732 0 0 0 1.69.191 1.676 1.676 0 0 0 .936.9V0z" class="cls-2" data-name="Path 9" transform="translate(0 .052)"/>
            </g>
            <g id="Group_9" data-name="Group 9" transform="translate(36.396 2.262)">
                <path id="Path_10" d="M-.226-.019a2.694 2.694 0 0 0-1.38-.351A2.748 2.748 0 0 0-3-.019a2.514 2.514 0 0 0-.967.981 2.873 2.873 0 0 0-.351 1.417A2.815 2.815 0 0 0-3.953 3.8a2.528 2.528 0 0 0 1.023.984 3.222 3.222 0 0 0 1.517.351A3.184 3.184 0 0 0-.2 4.913a2.38 2.38 0 0 0 .911-.652l-.54-.633a1.992 1.992 0 0 1-1.558.652 2.05 2.05 0 0 1-1.328-.43 1.706 1.706 0 0 1-.622-1.15h4.378a2.81 2.81 0 0 0 .019-.3A3.01 3.01 0 0 0 .721.961a2.465 2.465 0 0 0-.947-.98M-3.337 2A1.727 1.727 0 0 1-2.783.881 1.7 1.7 0 0 1-1.606.452 1.668 1.668 0 0 1-.431.886 1.728 1.728 0 0 1 .124 2z" class="cls-2" data-name="Path 10" transform="translate(4.314 .37)"/>
            </g>
            <g id="Group_10" data-name="Group 10" transform="translate(46.149 .58)">
                <path id="Path_11" d="M-.29-.355A3.213 3.213 0 0 0 .5-2.7v-4.053h-.984v4.013A2.485 2.485 0 0 1-1-1.015a1.931 1.931 0 0 1-1.5.564q-2.007 0-2.006-2.289v-4.013h-1.017V-2.7a3.216 3.216 0 0 0 .794 2.34A2.948 2.948 0 0 0-2.51.455a2.966 2.966 0 0 0 2.22-.81" class="cls-2" data-name="Path 11" transform="translate(5.523 6.753)"/>
            </g>
            <g id="Group_11" data-name="Group 11" transform="translate(53.539 2.262)">
                <path id="Path_12" d="M-.127-.258A3.668 3.668 0 0 1-1.155-.41a2.9 2.9 0 0 1-.866-.408l-.407.772a2.763 2.763 0 0 0 .957.454A4.535 4.535 0 0 0-.2.587 2.945 2.945 0 0 0 1.5.153a1.345 1.345 0 0 0 .626-1.165 1.209 1.209 0 0 0-.285-.856 1.6 1.6 0 0 0-.68-.432 8.076 8.076 0 0 0-1.054-.24q-.488-.091-.757-.16a1.144 1.144 0 0 1-.455-.224.513.513 0 0 1-.182-.417.609.609 0 0 1 .326-.538 1.768 1.768 0 0 1 .946-.2 2.788 2.788 0 0 1 1.558.428l.419-.776a2.942 2.942 0 0 0-.887-.356A4.659 4.659 0 0 0 0-4.92a2.739 2.739 0 0 0-1.639.442A1.386 1.386 0 0 0-2.256-3.3a1.245 1.245 0 0 0 .3.884 1.627 1.627 0 0 0 .709.45 6.948 6.948 0 0 0 1.063.231c.319.056.565.105.737.15a1.122 1.122 0 0 1 .434.208.478.478 0 0 1 .172.387q0 .733-1.283.734" class="cls-2" data-name="Path 12" transform="translate(2.428 4.92)"/>
            </g>
            <g id="Group_12" data-name="Group 12" transform="translate(58.926 2.262)">
                <path id="Path_13" d="M-.226-.019a2.694 2.694 0 0 0-1.38-.351A2.748 2.748 0 0 0-3-.019a2.514 2.514 0 0 0-.967.981 2.873 2.873 0 0 0-.351 1.417A2.815 2.815 0 0 0-3.953 3.8a2.528 2.528 0 0 0 1.023.984 3.222 3.222 0 0 0 1.517.351A3.184 3.184 0 0 0-.2 4.913a2.373 2.373 0 0 0 .911-.652l-.54-.633a1.992 1.992 0 0 1-1.558.652 2.05 2.05 0 0 1-1.328-.43 1.706 1.706 0 0 1-.622-1.15h4.378a2.81 2.81 0 0 0 .019-.3A3.01 3.01 0 0 0 .721.961a2.465 2.465 0 0 0-.947-.98M-3.337 2A1.724 1.724 0 0 1-2.782.881 1.694 1.694 0 0 1-1.606.452 1.672 1.672 0 0 1-.43.886 1.731 1.731 0 0 1 .124 2z" class="cls-2" data-name="Path 13" transform="translate(4.314 .37)"/>
            </g>
            <g id="Group_13" data-name="Group 13" transform="translate(65.757 2.262)">
                <path id="Path_14" d="M-.052-.053v-.906h-.936v5.4h.978V1.75A1.872 1.872 0 0 1 .443.4 1.646 1.646 0 0 1 1.69-.073c.095 0 .17 0 .224.009v-.945A2.729 2.729 0 0 0 .7-.765a1.662 1.662 0 0 0-.754.713" class="cls-2" data-name="Path 14" transform="translate(.988 1.009)"/>
            </g>
            <g id="Group_14" data-name="Group 14" transform="translate(72.434 .5)">
                <path id="Path_15" d="M-.133-.07a3 3 0 0 1 1.461-.35A2.869 2.869 0 0 1 3.4.4l.63-.629a3.178 3.178 0 0 0-1.19-.818 4.171 4.171 0 0 0-1.552-.279A4.083 4.083 0 0 0-.673-.86 3.472 3.472 0 0 0-2.036.444a3.623 3.623 0 0 0-.494 1.875 3.583 3.583 0 0 0 .494 1.867 3.515 3.515 0 0 0 1.36 1.3 3.987 3.987 0 0 0 1.944.472 4.581 4.581 0 0 0 1.467-.234 3.791 3.791 0 0 0 1.231-.671V2.277h-.978V4.6a3.009 3.009 0 0 1-1.67.46A2.953 2.953 0 0 1-.133 4.7a2.594 2.594 0 0 1-1.012-.983 2.715 2.715 0 0 1-.368-1.4A2.734 2.734 0 0 1-1.145.908 2.582 2.582 0 0 1-.133-.07" class="cls-2" data-name="Path 15" transform="translate(2.53 1.326)"/>
            </g>
            <g id="Group_15" data-name="Group 15" transform="translate(80.834 2.262)">
                <path id="Path_16" d="M-.052-.053v-.906h-.936v5.4h.978V1.75A1.872 1.872 0 0 1 .443.4 1.646 1.646 0 0 1 1.69-.073c.095 0 .17 0 .224.009v-.945A2.732 2.732 0 0 0 .7-.765a1.667 1.667 0 0 0-.754.713" class="cls-2" data-name="Path 16" transform="translate(.988 1.009)"/>
            </g>
            <g id="Group_16" data-name="Group 16" transform="translate(84.49 2.262)">
                <path id="Path_17" d="M-.235-.019A2.921 2.921 0 0 0-1.676-.37a2.945 2.945 0 0 0-1.446.351 2.522 2.522 0 0 0-1 .978 2.784 2.784 0 0 0-.361 1.419A2.786 2.786 0 0 0-4.125 3.8a2.594 2.594 0 0 0 1 .984 2.928 2.928 0 0 0 1.446.356 2.9 2.9 0 0 0 1.44-.356 2.6 2.6 0 0 0 1-.984 2.777 2.777 0 0 0 .362-1.419A2.775 2.775 0 0 0 .761.958a2.524 2.524 0 0 0-1-.978M-.1 3.369a1.689 1.689 0 0 1-.646.674 1.832 1.832 0 0 1-.93.238 1.835 1.835 0 0 1-.932-.238 1.729 1.729 0 0 1-.652-.674 2.024 2.024 0 0 1-.24-.991 2.04 2.04 0 0 1 .239-.994 1.709 1.709 0 0 1 .653-.666 1.842 1.842 0 0 1 .932-.235 1.84 1.84 0 0 1 .93.235 1.67 1.67 0 0 1 .646.666 2.059 2.059 0 0 1 .235.994 2.043 2.043 0 0 1-.235.991" class="cls-2" data-name="Path 17" transform="translate(4.486 .37)"/>
            </g>
            <g id="Group_17" data-name="Group 17" transform="translate(91.503 2.311)">
                <path id="Path_18" d="M-.227-.155a1.839 1.839 0 0 1-.448 1.323 1.614 1.614 0 0 1-1.222.47 1.4 1.4 0 0 1-1.078-.4A1.671 1.671 0 0 1-3.352.05v-2.994h-.978V.16a2.326 2.326 0 0 0 .622 1.757 2.351 2.351 0 0 0 1.7.6 2.445 2.445 0 0 0 1.053-.233 1.95 1.95 0 0 0 .779-.646v.814h.927v-5.4h-.978z" class="cls-2" data-name="Path 18" transform="translate(4.33 2.944)"/>
            </g>
            <g id="Group_18" data-name="Group 18" transform="translate(98.548 2.262)">
                <path id="Path_19" d="M-.236-.019a2.82 2.82 0 0 0-1.4-.345 2.628 2.628 0 0 0-1.1.226 2.118 2.118 0 0 0-.824.68v-.857h-.94v7.371h.978V4.267a2.217 2.217 0 0 0 .819.651 2.5 2.5 0 0 0 1.065.224A2.85 2.85 0 0 0-.236 4.8a2.473 2.473 0 0 0 .972-.975 2.874 2.874 0 0 0 .352-1.438A2.859 2.859 0 0 0 .736.947a2.47 2.47 0 0 0-.972-.966m.1 3.394a1.716 1.716 0 0 1-.652.674 1.842 1.842 0 0 1-.93.238 1.848 1.848 0 0 1-.927-.238 1.678 1.678 0 0 1-.655-.674 2.054 2.054 0 0 1-.235-.991 1.989 1.989 0 0 1 .241-.989 1.729 1.729 0 0 1 .65-.666 1.8 1.8 0 0 1 .922-.24 1.84 1.84 0 0 1 .93.235 1.693 1.693 0 0 1 .652.665 2.025 2.025 0 0 1 .24.995 2 2 0 0 1-.239.991" class="cls-2" data-name="Path 19" transform="translate(4.502 .364)"/>
            </g>
            <g id="Group_19" data-name="Group 19" transform="translate(.072 12.715)">
                <path id="Path_20" d="M-.132-.07A2.915 2.915 0 0 1 1.3-.426a2.653 2.653 0 0 1 2 .845l.661-.641A3.1 3.1 0 0 0 2.79-1.05a4 4 0 0 0-1.527-.282 3.947 3.947 0 0 0-1.935.475A3.464 3.464 0 0 0-2.025.446a3.6 3.6 0 0 0-.489 1.868 3.6 3.6 0 0 0 .489 1.867 3.467 3.467 0 0 0 1.349 1.3 3.912 3.912 0 0 0 1.929.475 4.052 4.052 0 0 0 1.531-.284 3.174 3.174 0 0 0 1.186-.837L3.309 4.2a2.664 2.664 0 0 1-2 .857A2.9 2.9 0 0 1-.132 4.7a2.578 2.578 0 0 1-1-.984 2.739 2.739 0 0 1-.362-1.4 2.74 2.74 0 0 1 .362-1.4 2.578 2.578 0 0 1 1-.984" class="cls-2" data-name="Path 20" transform="translate(2.514 1.332)"/>
            </g>
            <g id="Group_20" data-name="Group 20" transform="translate(7.249 14.477)">
                <path id="Path_21" d="M-.235-.019A2.918 2.918 0 0 0-1.676-.37a2.948 2.948 0 0 0-1.446.351 2.56 2.56 0 0 0-1 .978 2.791 2.791 0 0 0-.361 1.419A2.8 2.8 0 0 0-4.125 3.8a2.586 2.586 0 0 0 1 .981 2.93 2.93 0 0 0 1.446.356 2.9 2.9 0 0 0 1.44-.356 2.588 2.588 0 0 0 1-.981 2.793 2.793 0 0 0 .362-1.422A2.782 2.782 0 0 0 .761.958a2.562 2.562 0 0 0-1-.978M-.1 3.372a1.694 1.694 0 0 1-.646.671 1.806 1.806 0 0 1-.93.241 1.808 1.808 0 0 1-.932-.241 1.738 1.738 0 0 1-.651-.671 2.025 2.025 0 0 1-.24-.994 2.011 2.011 0 0 1 .24-.991 1.707 1.707 0 0 1 .651-.669 1.87 1.87 0 0 1 .932-.232 1.868 1.868 0 0 1 .93.232 1.665 1.665 0 0 1 .646.669 2.04 2.04 0 0 1 .235.991 2.054 2.054 0 0 1-.235.994" class="cls-2" data-name="Path 21" transform="translate(4.486 .37)"/>
            </g>
            <g id="Group_21" data-name="Group 21" transform="translate(14.314 14.477)">
                <path id="Path_22" d="M-.16 0A2.8 2.8 0 0 0-1.3.224a1.92 1.92 0 0 0-.8.641V.049h-.94v5.4h.978V2.668a1.81 1.81 0 0 1 .457-1.328A1.683 1.683 0 0 1-.353.875a1.415 1.415 0 0 1 1.079.4A1.647 1.647 0 0 1 1.1 2.452v2.994h.98v-3.1A2.335 2.335 0 0 0 1.475.6 2.228 2.228 0 0 0-.16 0" class="cls-2" data-name="Path 22" transform="translate(3.04)"/>
            </g>
            <g id="Group_22" data-name="Group 22" transform="translate(20.576 12.309)">
                <path id="Path_23" d="M-.149 0a1.774 1.774 0 0 0-1.314.467 1.722 1.722 0 0 0-.468 1.273v.478h-.915v.807h.915v4.59h.978V3.024H.6v-.807H-.974v-.466C-.974 1.118-.683.8-.1.8a1.229 1.229 0 0 1 .754.254L.951.315A1.506 1.506 0 0 0 .463.081 2.275 2.275 0 0 0-.149 0" class="cls-2" data-name="Path 23" transform="translate(2.846)"/>
            </g>
            <g id="Group_23" data-name="Group 23" transform="translate(24.466 14.477)">
                <path id="Path_24" d="M-.226-.019a2.694 2.694 0 0 0-1.38-.351A2.748 2.748 0 0 0-3-.019a2.534 2.534 0 0 0-.967.984 2.854 2.854 0 0 0-.351 1.414A2.812 2.812 0 0 0-3.953 3.8a2.5 2.5 0 0 0 1.022.983 3.184 3.184 0 0 0 1.518.352A3.184 3.184 0 0 0-.2 4.913a2.351 2.351 0 0 0 .911-.652l-.54-.63a2 2 0 0 1-1.558.652 2.037 2.037 0 0 1-1.328-.434A1.7 1.7 0 0 1-3.337 2.7h4.378a2.825 2.825 0 0 0 .019-.3A3 3 0 0 0 .721.964a2.485 2.485 0 0 0-.947-.983M-3.337 2A1.741 1.741 0 0 1-2.783.881 1.7 1.7 0 0 1-1.606.455 1.679 1.679 0 0 1-.431.886 1.735 1.735 0 0 1 .124 2z" class="cls-2" data-name="Path 24" transform="translate(4.314 .37)"/>
            </g>
            <g id="Group_24" data-name="Group 24" transform="translate(31.297 14.477)">
                <path id="Path_25" d="M-.052-.053v-.909h-.936v5.4h.978V1.747A1.869 1.869 0 0 1 .443.4 1.638 1.638 0 0 1 1.69-.075a1.552 1.552 0 0 1 .224.011v-.948A2.772 2.772 0 0 0 .7-.768a1.678 1.678 0 0 0-.754.715" class="cls-2" data-name="Path 25" transform="translate(.988 1.011)"/>
            </g>
            <g id="Group_25" data-name="Group 25" transform="translate(34.952 14.477)">
                <path id="Path_26" d="M-.226-.019a2.694 2.694 0 0 0-1.38-.351A2.748 2.748 0 0 0-3-.019a2.534 2.534 0 0 0-.967.984 2.854 2.854 0 0 0-.351 1.414A2.812 2.812 0 0 0-3.953 3.8a2.5 2.5 0 0 0 1.022.983 3.184 3.184 0 0 0 1.518.352A3.184 3.184 0 0 0-.2 4.913a2.351 2.351 0 0 0 .911-.652l-.54-.63a2 2 0 0 1-1.558.652 2.037 2.037 0 0 1-1.328-.434A1.7 1.7 0 0 1-3.337 2.7h4.378a2.825 2.825 0 0 0 .019-.3A3 3 0 0 0 .721.964a2.485 2.485 0 0 0-.947-.983M-3.337 2A1.741 1.741 0 0 1-2.783.881 1.7 1.7 0 0 1-1.606.455 1.679 1.679 0 0 1-.431.886 1.735 1.735 0 0 1 .124 2z" class="cls-2" data-name="Path 26" transform="translate(4.314 .37)"/>
            </g>
            <g id="Group_26" data-name="Group 26" transform="translate(41.783 14.477)">
                <path id="Path_27" d="M-.16 0A2.8 2.8 0 0 0-1.3.224a1.926 1.926 0 0 0-.8.641V.049h-.94v5.4h.978V2.668a1.81 1.81 0 0 1 .457-1.328A1.683 1.683 0 0 1-.353.875a1.418 1.418 0 0 1 1.08.4A1.651 1.651 0 0 1 1.1 2.452v2.994h.98v-3.1A2.338 2.338 0 0 0 1.476.6 2.23 2.23 0 0 0-.16 0" class="cls-2" data-name="Path 27" transform="translate(3.04)"/>
            </g>
            <g id="Group_27" data-name="Group 27" transform="translate(48.35 14.477)">
                <path id="Path_28" d="M-.1-.06a1.953 1.953 0 0 1 .949-.232 1.787 1.787 0 0 1 .833.192 1.63 1.63 0 0 1 .631.58L3.057 0a2.1 2.1 0 0 0-.892-.857 2.839 2.839 0 0 0-1.307-.291A3.018 3.018 0 0 0-.612-.8a2.575 2.575 0 0 0-1.014.98 2.757 2.757 0 0 0-.366 1.42 2.77 2.77 0 0 0 .366 1.422A2.6 2.6 0 0 0-.612 4a2.99 2.99 0 0 0 1.471.356 2.793 2.793 0 0 0 1.308-.3 2.154 2.154 0 0 0 .89-.856l-.744-.466a1.674 1.674 0 0 1-.631.58 1.822 1.822 0 0 1-.834.193A1.954 1.954 0 0 1-.1 3.27a1.674 1.674 0 0 1-.666-.67A2.035 2.035 0 0 1-1 1.6 2.017 2.017 0 0 1-.766.608 1.692 1.692 0 0 1-.1-.06" class="cls-2" data-name="Path 28" transform="translate(1.992 1.148)"/>
            </g>
            <g id="Group_28" data-name="Group 28" transform="translate(54.184 14.477)">
                <path id="Path_29" d="M-.226-.019a2.694 2.694 0 0 0-1.38-.351A2.748 2.748 0 0 0-3-.019a2.527 2.527 0 0 0-.967.984 2.854 2.854 0 0 0-.351 1.414A2.812 2.812 0 0 0-3.953 3.8a2.5 2.5 0 0 0 1.022.983 3.184 3.184 0 0 0 1.518.352A3.184 3.184 0 0 0-.2 4.913a2.351 2.351 0 0 0 .911-.652l-.54-.63a2 2 0 0 1-1.558.652 2.037 2.037 0 0 1-1.328-.434A1.7 1.7 0 0 1-3.337 2.7h4.378a2.825 2.825 0 0 0 .019-.3A3 3 0 0 0 .721.964a2.491 2.491 0 0 0-.947-.983M-3.337 2A1.741 1.741 0 0 1-2.783.881 1.7 1.7 0 0 1-1.606.455 1.679 1.679 0 0 1-.431.886 1.735 1.735 0 0 1 .124 2z" class="cls-2" data-name="Path 29" transform="translate(4.314 .37)"/>
            </g>
        </g>
        <g id="Group_110" data-name="Group 110" transform="translate(-1713.608 1803.859)">
            <g id="Group_104" data-name="Group 104" transform="translate(1805.817 239.52)">
                <g id="Group_103" data-name="Group 103">
                    <path id="Path_110" d="M1812.184 366.979a2.123 2.123 0 0 0-.794-.594 2.31 2.31 0 0 0-.945-.22 2.916 2.916 0 0 0-.477.04 1.268 1.268 0 0 0-.435.154 1.064 1.064 0 0 0-.325.293.763.763 0 0 0-.131.46.72.72 0 0 0 .1.4.9.9 0 0 0 .3.28 2.716 2.716 0 0 0 .477.22q.276.1.621.207.5.16 1.036.353a3.915 3.915 0 0 1 .98.513 2.732 2.732 0 0 1 .732.794 2.223 2.223 0 0 1 .29 1.18 3 3 0 0 1-.31 1.407 2.831 2.831 0 0 1-.835.98 3.624 3.624 0 0 1-1.2.573 5.2 5.2 0 0 1-1.395.187 5.937 5.937 0 0 1-2.03-.354 4.32 4.32 0 0 1-1.63-1.007l1.547-1.52a2.838 2.838 0 0 0 .946.713 2.642 2.642 0 0 0 1.167.287 2.412 2.412 0 0 0 .511-.054 1.293 1.293 0 0 0 .435-.173.882.882 0 0 0 .3-.32.98.98 0 0 0 .111-.48.742.742 0 0 0-.138-.453 1.328 1.328 0 0 0-.393-.34 3.238 3.238 0 0 0-.635-.28q-.38-.127-.863-.273a8.4 8.4 0 0 1-.918-.347 3.1 3.1 0 0 1-.8-.514 2.378 2.378 0 0 1-.566-.76 2.5 2.5 0 0 1-.214-1.087 2.6 2.6 0 0 1 .331-1.347 2.828 2.828 0 0 1 .87-.92 3.811 3.811 0 0 1 1.215-.527 5.7 5.7 0 0 1 1.367-.167 5.232 5.232 0 0 1 1.692.293 4.389 4.389 0 0 1 1.512.867z" class="cls-2" data-name="Path 110" transform="translate(-1806.219 -364.272)"/>
                    <path id="Path_111" d="M1840.286 372.422a3.381 3.381 0 0 1-.849 1.2 3.946 3.946 0 0 1-1.333.78 5.523 5.523 0 0 1-3.473 0 3.8 3.8 0 0 1-1.312-.78 3.375 3.375 0 0 1-.829-1.2 4.011 4.011 0 0 1-.29-1.553v-5.881h2.348v5.694a2.547 2.547 0 0 0 .1.733 1.863 1.863 0 0 0 .317.62 1.481 1.481 0 0 0 .567.433 2.329 2.329 0 0 0 1.7 0 1.545 1.545 0 0 0 .573-.433 1.717 1.717 0 0 0 .318-.62 2.738 2.738 0 0 0 .1-.733v-5.694h2.362v5.881a3.941 3.941 0 0 1-.299 1.553z" class="cls-2" data-name="Path 111" transform="translate(-1823.335 -364.735)"/>
                    <path id="Path_112" d="M1868.479 373.954a9.071 9.071 0 0 1-2.092.227 6.265 6.265 0 0 1-2.161-.36 5.02 5.02 0 0 1-1.7-1.013 4.622 4.622 0 0 1-1.112-1.567 5.373 5.373 0 0 1 .007-4.087 4.563 4.563 0 0 1 1.126-1.567 5.012 5.012 0 0 1 1.684-.994 6.137 6.137 0 0 1 2.086-.347 6.614 6.614 0 0 1 2.154.34 4.484 4.484 0 0 1 1.616.913l-1.491 1.641a2.574 2.574 0 0 0-.911-.634 3.193 3.193 0 0 0-1.284-.247 2.932 2.932 0 0 0-1.146.22 2.735 2.735 0 0 0-1.512 1.547 3.174 3.174 0 0 0-.214 1.18 3.572 3.572 0 0 0 .193 1.2 2.561 2.561 0 0 0 .573.94 2.609 2.609 0 0 0 .939.613 3.47 3.47 0 0 0 1.278.22 4.919 4.919 0 0 0 .787-.06 3 3 0 0 0 .69-.193v-1.72h-1.864v-1.841h4.032v5a7.654 7.654 0 0 1-1.678.589z" class="cls-2" data-name="Path 112" transform="translate(-1842.318 -364.246)"/>
                    <path id="Path_113" d="M1899.594 373.774a5.4 5.4 0 0 1-2.2.42 5.914 5.914 0 0 1-2.092-.36 4.935 4.935 0 0 1-1.664-1.02 4.724 4.724 0 0 1-1.1-1.58 5.354 5.354 0 0 1 .007-4.081 4.57 4.57 0 0 1 1.125-1.567 5.015 5.015 0 0 1 1.684-.994 6.244 6.244 0 0 1 4.122.007 3.908 3.908 0 0 1 1.623 1.034l-1.6 1.547a1.972 1.972 0 0 0-.87-.653 2.979 2.979 0 0 0-1.1-.213 2.889 2.889 0 0 0-1.139.22 2.671 2.671 0 0 0-.891.607 2.759 2.759 0 0 0-.58.913 3.135 3.135 0 0 0-.207 1.154 3.222 3.222 0 0 0 .207 1.174 2.723 2.723 0 0 0 .573.913 2.569 2.569 0 0 0 .877.594 2.87 2.87 0 0 0 1.118.213 2.677 2.677 0 0 0 1.229-.267 2.36 2.36 0 0 0 .842-.693l1.643 1.493a4.648 4.648 0 0 1-1.607 1.139z" class="cls-2" data-name="Path 113" transform="translate(-1862.821 -364.246)"/>
                    <path id="Path_114" d="M1930.466 369.18a5.106 5.106 0 0 1-.4 2.047 4.665 4.665 0 0 1-1.112 1.587 4.979 4.979 0 0 1-1.692 1.02 6.442 6.442 0 0 1-4.246 0 4.98 4.98 0 0 1-1.684-1.02 4.646 4.646 0 0 1-1.112-1.587 5.1 5.1 0 0 1-.4-2.047 5.044 5.044 0 0 1 .4-2.047 4.476 4.476 0 0 1 1.112-1.554 4.979 4.979 0 0 1 1.684-.987 6.675 6.675 0 0 1 4.246 0 4.979 4.979 0 0 1 1.692.987 4.494 4.494 0 0 1 1.112 1.554 5.048 5.048 0 0 1 .4 2.047zm-2.527 0a3.148 3.148 0 0 0-.207-1.147 2.719 2.719 0 0 0-.573-.913 2.651 2.651 0 0 0-.884-.6 2.883 2.883 0 0 0-1.139-.22 2.833 2.833 0 0 0-1.132.22 2.744 2.744 0 0 0-.884.6 2.577 2.577 0 0 0-.573.913 3.234 3.234 0 0 0-.2 1.147 3.268 3.268 0 0 0 .207 1.18 2.773 2.773 0 0 0 .573.927 2.613 2.613 0 0 0 .877.607 3.023 3.023 0 0 0 2.264 0 2.692 2.692 0 0 0 .884-.607 2.727 2.727 0 0 0 .58-.927 3.276 3.276 0 0 0 .207-1.18z" class="cls-2" data-name="Path 114" transform="translate(-1881.057 -364.246)"/>
                    <path id="Path_115" d="M1961.809 374.429l-3.936-6.174h-.041l.055 6.174h-2.287v-9.441h2.692l3.922 6.161h.042l-.056-6.161h2.293v9.441z" class="cls-2" data-name="Path 115" transform="translate(-1904.626 -364.735)"/>
                </g>
            </g>
            <g id="Group_108" data-name="Group 108" transform="translate(1805.608 174.919)">
                <g id="Group_107" class="cls-3" data-name="Group 107">
                    <g id="Group_105" data-name="Group 105" transform="translate(-10.141 -10.632)">
                        <rect id="Rectangle_10" width="61.077" height="61.077" class="cls-4" data-name="Rectangle 10" rx="10.416" transform="translate(10.141 10.632)"/>
                        <path id="Path_116" d="M1816.673 143.761a41.085 41.085 0 1 0 40.786 41.084 40.937 40.937 0 0 0-40.786-41.084zm.4 70.9a30.044 30.044 0 1 1 29.822-30.044 29.931 29.931 0 0 1-29.826 30.04z" class="cls-5" data-name="Path 116" transform="translate(-1775.887 -143.761)"/>
                        <path id="Path_117" d="M1819.671 282.949s4.633 18.1 22.729 20.038 27.153-13.791 27.153-13.791l-4.85-3.01s-7.541 12.712-21.007 12.278-20.254-8.508-24.025-15.515z" class="cls-5" data-name="Path 117" transform="translate(-1804.731 -235.456)"/>
                        <path id="Path_118" d="M1843.96 276.181a25.833 25.833 0 0 0 14.521 4.609c12.9.415 20.33-11.824 20.4-11.948l.355-.6.587.37 4.542 2.826a24.737 24.737 0 0 0 3.169-14.519l-8.393.1s.646 12.391-14.219 19.392c-6.193 2.916-16.588 2.439-22.843-2.479a10.815 10.815 0 0 0 1.881 2.249z" class="cls-5" data-name="Path 118" transform="translate(-1819.496 -218.308)"/>
                        <path id="Path_119" d="M1900.616 229.326l-.034-1.137.706.518h8.833c-.394-7.034-5.571-13.058-5.571-13.058l-9.912 6.141s6.311 4.715.6 15.863a24.444 24.444 0 0 1-10.187 9.907 23.818 23.818 0 0 1-8.49 2.36c.487.2 5.127 1.12 11.638-1.77a20.37 20.37 0 0 0 12.417-18.824z" class="cls-5" data-name="Path 119" transform="translate(-1842.207 -191.12)"/>
                    </g>
                    <g id="Group_106" data-name="Group 106" transform="translate(11.601 16.037)">
                        <rect id="Rectangle_11" width="36.851" height="27.297" class="cls-2" data-name="Rectangle 11" rx="3.6"/>
                        <path id="Path_120" d="M1921.927 278.632v14.9l-13.3-12.746z" class="cls-2" data-name="Path 120" transform="translate(-1885.076 -259.281)"/>
                    </g>
                </g>
            </g>
        </g>
    </g>
</svg>
