<svg xmlns="http://www.w3.org/2000/svg" xmlns:xlink="http://www.w3.org/1999/xlink" width="113.293" height="170.011" viewBox="0 0 113.293 170.011">
  <defs>
    <style>
      .cls-1 {
        fill: none;
      }

      .cls-2 {
        fill: #fff;
      }

      .cls-3 {
        clip-path: url(#clip-path);
      }

      .cls-4 {
        fill: #aa181b;
      }

      .cls-5 {
        fill: #e71a18;
      }
    </style>
    <clipPath id="clip-path">
      <rect id="Rectangle_12" data-name="Rectangle 12" class="cls-1" width="113.293" height="113.293" rx="10.416"/>
    </clipPath>
  </defs>
  <g id="Group_112" data-name="Group 112" transform="translate(-92 -53.779)">
    <g id="Group_109" data-name="Group 109" transform="translate(-1713.608 -121.141)">
      <g id="Group_104" data-name="Group 104" transform="translate(1805.995 294.748)">
        <g id="Group_103" data-name="Group 103" transform="translate(0 0)">
          <path id="Path_110" data-name="Path 110" class="cls-2" d="M1817.284,369.282a3.938,3.938,0,0,0-1.473-1.1,4.286,4.286,0,0,0-1.754-.408,5.412,5.412,0,0,0-.884.074,2.349,2.349,0,0,0-.807.285,1.968,1.968,0,0,0-.6.544,1.413,1.413,0,0,0-.243.853,1.334,1.334,0,0,0,.192.742,1.677,1.677,0,0,0,.563.52,5.049,5.049,0,0,0,.884.408q.512.185,1.153.384.922.3,1.921.656a7.26,7.26,0,0,1,1.818.952,5.074,5.074,0,0,1,1.358,1.472,4.126,4.126,0,0,1,.537,2.189,5.557,5.557,0,0,1-.576,2.609,5.251,5.251,0,0,1-1.549,1.818,6.723,6.723,0,0,1-2.229,1.063,9.651,9.651,0,0,1-2.587.347,11.011,11.011,0,0,1-3.765-.656,8.011,8.011,0,0,1-3.023-1.867l2.869-2.82a5.267,5.267,0,0,0,1.754,1.323,4.9,4.9,0,0,0,2.164.532,4.477,4.477,0,0,0,.948-.1,2.4,2.4,0,0,0,.807-.322,1.635,1.635,0,0,0,.551-.594,1.816,1.816,0,0,0,.205-.891,1.376,1.376,0,0,0-.256-.841,2.461,2.461,0,0,0-.73-.631,6,6,0,0,0-1.178-.52q-.7-.236-1.6-.507a15.576,15.576,0,0,1-1.7-.643,5.747,5.747,0,0,1-1.486-.953,4.411,4.411,0,0,1-1.05-1.41,4.637,4.637,0,0,1-.4-2.016,4.824,4.824,0,0,1,.614-2.5,5.245,5.245,0,0,1,1.614-1.707,7.075,7.075,0,0,1,2.255-.977,10.577,10.577,0,0,1,2.536-.309,9.705,9.705,0,0,1,3.138.544,8.14,8.14,0,0,1,2.8,1.608Z" transform="translate(-1806.219 -364.26)"/>
          <path id="Path_111" data-name="Path 111" class="cls-2" d="M1847.2,378.778a6.268,6.268,0,0,1-1.575,2.227,7.319,7.319,0,0,1-2.471,1.447,10.244,10.244,0,0,1-6.443,0,7.053,7.053,0,0,1-2.433-1.447,6.261,6.261,0,0,1-1.537-2.227,7.443,7.443,0,0,1-.539-2.881V364.988h4.355v10.563a4.732,4.732,0,0,0,.192,1.36,3.457,3.457,0,0,0,.589,1.151,2.742,2.742,0,0,0,1.051.8,4.318,4.318,0,0,0,3.15,0,2.858,2.858,0,0,0,1.063-.8,3.179,3.179,0,0,0,.589-1.151,5.068,5.068,0,0,0,.179-1.36V364.988h4.381V375.9A7.309,7.309,0,0,1,1847.2,378.778Z" transform="translate(-1815.756 -364.518)"/>
          <path id="Path_112" data-name="Path 112" class="cls-2" d="M1874.86,382.253a16.83,16.83,0,0,1-3.88.421,11.624,11.624,0,0,1-4.009-.668,9.3,9.3,0,0,1-3.151-1.88,8.571,8.571,0,0,1-2.062-2.907,9.968,9.968,0,0,1,.012-7.581,8.467,8.467,0,0,1,2.088-2.906,9.3,9.3,0,0,1,3.125-1.843,11.382,11.382,0,0,1,3.869-.643,12.272,12.272,0,0,1,3.995.63,8.319,8.319,0,0,1,3,1.694l-2.766,3.043a4.782,4.782,0,0,0-1.69-1.175,5.924,5.924,0,0,0-2.382-.458,5.441,5.441,0,0,0-2.126.408,5.074,5.074,0,0,0-2.8,2.869,5.883,5.883,0,0,0-.4,2.189,6.621,6.621,0,0,0,.359,2.227,4.753,4.753,0,0,0,1.063,1.744,4.839,4.839,0,0,0,1.742,1.137,6.435,6.435,0,0,0,2.37.409,9.128,9.128,0,0,0,1.46-.112,5.575,5.575,0,0,0,1.28-.358V375.3h-3.458v-3.414h7.48v9.276A14.207,14.207,0,0,1,1874.86,382.253Z" transform="translate(-1826.333 -364.246)"/>
          <path id="Path_113" data-name="Path 113" class="cls-2" d="M1905.969,381.92a10.017,10.017,0,0,1-4.072.779,10.971,10.971,0,0,1-3.881-.668,9.156,9.156,0,0,1-3.086-1.892,8.761,8.761,0,0,1-2.049-2.931,9.932,9.932,0,0,1,.013-7.569,8.483,8.483,0,0,1,2.087-2.906,9.3,9.3,0,0,1,3.125-1.843,11.582,11.582,0,0,1,7.646.012,7.25,7.25,0,0,1,3.01,1.918l-2.971,2.869a3.658,3.658,0,0,0-1.614-1.212,5.529,5.529,0,0,0-2.049-.4,5.359,5.359,0,0,0-2.113.408,4.949,4.949,0,0,0-1.652,1.126,5.107,5.107,0,0,0-1.077,1.694,5.81,5.81,0,0,0-.384,2.14,5.973,5.973,0,0,0,.384,2.177,5.046,5.046,0,0,0,1.063,1.694,4.767,4.767,0,0,0,1.627,1.1,5.327,5.327,0,0,0,2.075.4,4.963,4.963,0,0,0,2.28-.495,4.377,4.377,0,0,0,1.563-1.286l3.048,2.77A8.617,8.617,0,0,1,1905.969,381.92Z" transform="translate(-1837.758 -364.246)"/>
          <path id="Path_114" data-name="Path 114" class="cls-2" d="M1939.568,373.4a9.476,9.476,0,0,1-.742,3.8,8.659,8.659,0,0,1-2.062,2.944,9.235,9.235,0,0,1-3.138,1.892,11.949,11.949,0,0,1-7.877,0,9.242,9.242,0,0,1-3.125-1.892,8.625,8.625,0,0,1-2.062-2.944,9.464,9.464,0,0,1-.743-3.8,9.356,9.356,0,0,1,.743-3.8,8.308,8.308,0,0,1,2.062-2.882,9.239,9.239,0,0,1,3.125-1.83,12.383,12.383,0,0,1,7.877,0,9.235,9.235,0,0,1,3.138,1.83,8.34,8.34,0,0,1,2.062,2.882A9.368,9.368,0,0,1,1939.568,373.4Zm-4.687,0a5.844,5.844,0,0,0-.384-2.127,5.048,5.048,0,0,0-1.063-1.694,4.916,4.916,0,0,0-1.639-1.113,5.346,5.346,0,0,0-2.113-.408,5.256,5.256,0,0,0-2.1.408,5.09,5.09,0,0,0-1.639,1.113,4.778,4.778,0,0,0-1.062,1.694,6,6,0,0,0-.372,2.127,6.072,6.072,0,0,0,.384,2.189,5.155,5.155,0,0,0,1.063,1.719,4.847,4.847,0,0,0,1.627,1.125,5.607,5.607,0,0,0,4.2,0,5,5,0,0,0,1.64-1.125,5.067,5.067,0,0,0,1.075-1.719A6.083,6.083,0,0,0,1934.88,373.4Z" transform="translate(-1847.919 -364.246)"/>
          <path id="Path_115" data-name="Path 115" class="cls-2" d="M1967.122,382.5l-7.3-11.453h-.077l.1,11.453H1955.6V364.988h4.994l7.275,11.428h.077l-.1-11.428h4.253V382.5Z" transform="translate(-1861.052 -364.518)"/>
        </g>
      </g>
      <g id="Group_108" data-name="Group 108" transform="translate(1805.608 174.919)">
        <g id="Group_107" data-name="Group 107" class="cls-3">
          <g id="Group_105" data-name="Group 105" transform="translate(-18.811 -19.721)">
            <rect id="Rectangle_10" data-name="Rectangle 10" class="cls-4" width="113.293" height="113.293" rx="10.416" transform="translate(18.811 19.721)"/>
            <path id="Path_116" data-name="Path 116" class="cls-5" d="M1851.541,143.761c-41.785,0-75.654,34.124-75.654,76.207s33.869,76.209,75.654,76.209,75.654-34.124,75.654-76.209S1893.319,143.761,1851.541,143.761Zm.734,131.505c-30.549,0-55.31-24.951-55.31-55.728s24.761-55.728,55.31-55.728a55.73,55.73,0,0,1,0,111.456Z" transform="translate(-1775.887 -143.761)"/>
            <path id="Path_117" data-name="Path 117" class="cls-5" d="M1819.671,282.949s8.594,33.575,42.161,37.17c33.573,3.61,50.366-25.581,50.366-25.581l-9-5.584s-13.987,23.579-38.965,22.774S1826.665,295.946,1819.671,282.949Z" transform="translate(-1791.959 -194.854)"/>
            <path id="Path_118" data-name="Path 118" class="cls-5" d="M1845.566,292.649c7.567,5.379,16.5,8.215,26.934,8.549,23.924.77,37.709-21.933,37.845-22.162l.659-1.114,1.089.687,8.424,5.241c7.728-12.715,5.878-26.931,5.878-26.931l-15.568.177s1.2,22.983-26.374,35.971c-11.487,5.41-30.77,4.525-42.372-4.6A20.067,20.067,0,0,0,1845.566,292.649Z" transform="translate(-1800.186 -185.299)"/>
            <path id="Path_119" data-name="Path 119" class="cls-5" d="M1921.184,241.019l-.062-2.108,1.309.96h16.385c-.73-13.048-10.333-24.222-10.333-24.222L1910.1,227.04s11.707,8.746,1.1,29.424c-3.684,7.193-11.614,14.967-18.9,18.377a44.179,44.179,0,0,1-15.747,4.377c.9.365,9.51,2.077,21.588-3.282C1921.961,265.356,1921.23,241.924,1921.184,241.019Z" transform="translate(-1812.841 -170.15)"/>
          </g>
          <g id="Group_106" data-name="Group 106" transform="translate(21.519 29.747)">
            <rect id="Rectangle_11" data-name="Rectangle 11" class="cls-2" width="68.355" height="50.634" rx="3.6"/>
            <path id="Path_120" data-name="Path 120" class="cls-2" d="M1933.3,278.632V306.27l-24.673-23.642Z" transform="translate(-1864.943 -242.737)"/>
          </g>
        </g>
      </g>
    </g>
    <g id="Group_111" data-name="Group 111" transform="translate(92.246 202.257)">
      <g id="Group_1" data-name="Group 1" transform="translate(0 0.538)">
        <path id="Path_1" data-name="Path 1" class="cls-2" d="M.057.135A4.128,4.128,0,0,1-1.35-.112,3.324,3.324,0,0,1-2.474-.754L-2.88.1A3.433,3.433,0,0,0-1.613.8a5.261,5.261,0,0,0,1.671.267A4.142,4.142,0,0,0,1.7.777a2.221,2.221,0,0,0,1-.791,1.962,1.962,0,0,0,.328-1.1,1.67,1.67,0,0,0-.377-1.15,2.319,2.319,0,0,0-.9-.636A10.288,10.288,0,0,0,.353-3.317,10.154,10.154,0,0,1-.7-3.608a1.831,1.831,0,0,1-.653-.383.836.836,0,0,1-.263-.641,1.045,1.045,0,0,1,.467-.877,2.372,2.372,0,0,1,1.4-.339,3.813,3.813,0,0,1,1.073.16,3.886,3.886,0,0,1,1.03.464L2.709-6.1a3.578,3.578,0,0,0-1.128-.5A5.107,5.107,0,0,0,.245-6.78a3.987,3.987,0,0,0-1.634.295,2.228,2.228,0,0,0-.981.791,1.961,1.961,0,0,0-.322,1.1,1.708,1.708,0,0,0,.377,1.169,2.287,2.287,0,0,0,.91.639,10.556,10.556,0,0,0,1.4.416c.461.109.816.208,1.069.3a1.717,1.717,0,0,1,.634.377.847.847,0,0,1,.259.643,1,1,0,0,1-.471.859A2.526,2.526,0,0,1,.057.135" transform="translate(2.88 6.78)"/>
      </g>
      <path id="Path_3" data-name="Path 3" class="cls-2" d="M11.1-18.674H10.045v5.808H11.1Z" transform="translate(-2.583 21.162)"/>
      <g id="Group_3" data-name="Group 3" transform="translate(7.277)">
        <path id="Path_4" data-name="Path 4" class="cls-2" d="M.014.027a.7.7,0,0,0,.51-.2.682.682,0,0,0,.2-.5.626.626,0,0,0-.2-.475.714.714,0,0,0-.51-.194.7.7,0,0,0-.51.2.674.674,0,0,0-.2.487A.655.655,0,0,0-.5-.17a.7.7,0,0,0,.51.2" transform="translate(0.698 1.344)"/>
      </g>
      <g id="Group_4" data-name="Group 4" transform="translate(9.796 1.216)">
        <path id="Path_5" data-name="Path 5" class="cls-2" d="M.057.122A.877.877,0,0,1-.618-.131,1.022,1.022,0,0,1-.852-.853V-4H.814v-.865H-.852V-6.135H-1.9v1.272H-2.89V-4H-1.9v3.19A1.788,1.788,0,0,0-1.421.538,1.856,1.856,0,0,0-.063,1.01a2.425,2.425,0,0,0,.7-.1A1.519,1.519,0,0,0,1.208.6L.879-.152A1.265,1.265,0,0,1,.057.122" transform="translate(2.89 6.135)"/>
      </g>
      <g id="Group_5" data-name="Group 5" transform="translate(14.54 2.434)">
        <path id="Path_6" data-name="Path 6" class="cls-2" d="M.061.115A3.408,3.408,0,0,0,1.37-.125a2.551,2.551,0,0,0,.981-.7l-.581-.68a2.147,2.147,0,0,1-1.677.7,2.207,2.207,0,0,1-1.43-.463A1.834,1.834,0,0,1-2.011-2.5H2.7a3.025,3.025,0,0,0,.02-.318,3.239,3.239,0,0,0-.365-1.557,2.66,2.66,0,0,0-1.02-1.056A2.91,2.91,0,0,0-.147-5.812a2.968,2.968,0,0,0-1.5.377A2.706,2.706,0,0,0-2.685-4.379a3.092,3.092,0,0,0-.377,1.525,3.027,3.027,0,0,0,.389,1.534,2.718,2.718,0,0,0,1.1,1.059A3.463,3.463,0,0,0,.061.115M-1.413-4.466a1.822,1.822,0,0,1,1.266-.46,1.8,1.8,0,0,1,1.265.466,1.862,1.862,0,0,1,.6,1.2H-2.011a1.858,1.858,0,0,1,.6-1.2" transform="translate(3.062 5.812)"/>
      </g>
      <g id="Group_6" data-name="Group 6" transform="translate(21.356 2.434)">
        <path id="Path_7" data-name="Path 7" class="cls-2" d="M.06.115A2.968,2.968,0,0,0,1.467-.209a2.306,2.306,0,0,0,.961-.924l-.8-.5a1.783,1.783,0,0,1-.679.623,1.923,1.923,0,0,1-.9.208A2.07,2.07,0,0,1-.976-1.058a1.8,1.8,0,0,1-.712-.717,2.19,2.19,0,0,1-.257-1.079,2.187,2.187,0,0,1,.257-1.07A1.814,1.814,0,0,1-.976-4.64,2.06,2.06,0,0,1,.05-4.893a1.961,1.961,0,0,1,.9.208,1.8,1.8,0,0,1,.679.624l.8-.514A2.3,2.3,0,0,0,1.467-5.5,3.039,3.039,0,0,0,.06-5.812a3.263,3.263,0,0,0-1.583.377A2.737,2.737,0,0,0-2.614-4.382a2.959,2.959,0,0,0-.394,1.528,2.959,2.959,0,0,0,.394,1.528A2.807,2.807,0,0,0-1.523-.268,3.221,3.221,0,0,0,.06.115" transform="translate(3.008 5.812)"/>
      </g>
      <g id="Group_7" data-name="Group 7" transform="translate(27.635 2.435)">
        <path id="Path_8" data-name="Path 8" class="cls-2" d="M.089.007A3.141,3.141,0,0,0-1.461-.37,3.173,3.173,0,0,0-3.017.007,2.715,2.715,0,0,0-4.1,1.06a3,3,0,0,0-.389,1.528A3,3,0,0,0-4.1,4.115a2.792,2.792,0,0,0,1.08,1.059,3.154,3.154,0,0,0,1.556.383,3.122,3.122,0,0,0,1.55-.383A2.794,2.794,0,0,0,1.162,4.115a2.989,2.989,0,0,0,.39-1.528,2.987,2.987,0,0,0-.39-1.528A2.716,2.716,0,0,0,.089.007M.236,3.654a1.812,1.812,0,0,1-.7.725,1.972,1.972,0,0,1-1,.256,1.975,1.975,0,0,1-1-.256,1.858,1.858,0,0,1-.7-.725,2.167,2.167,0,0,1-.258-1.067,2.185,2.185,0,0,1,.258-1.07A1.836,1.836,0,0,1-2.465.8a1.983,1.983,0,0,1,1-.253A1.981,1.981,0,0,1-.46.8a1.79,1.79,0,0,1,.7.717,2.217,2.217,0,0,1,.253,1.07A2.2,2.2,0,0,1,.236,3.654" transform="translate(4.486 0.37)"/>
      </g>
      <g id="Group_8" data-name="Group 8" transform="translate(35.239 2.435)">
        <path id="Path_9" data-name="Path 9" class="cls-2" d="M0,0V5.809H1.052V2.917A2.016,2.016,0,0,1,1.54,1.463,1.771,1.771,0,0,1,2.882.956c.1,0,.183,0,.241.008V-.052a2.941,2.941,0,0,0-1.3.261,1.8,1.8,0,0,0-.812.767V0Z" transform="translate(0 0.052)"/>
      </g>
      <g id="Group_9" data-name="Group 9" transform="translate(39.175 2.435)">
        <path id="Path_10" data-name="Path 10" class="cls-2" d="M.086.007A2.9,2.9,0,0,0-1.4-.37,2.957,2.957,0,0,0-2.9.007,2.706,2.706,0,0,0-3.937,1.063a3.092,3.092,0,0,0-.377,1.525,3.03,3.03,0,0,0,.389,1.534,2.721,2.721,0,0,0,1.1,1.059,3.468,3.468,0,0,0,1.633.377A3.427,3.427,0,0,0,.118,5.317a2.562,2.562,0,0,0,.981-.7L.518,3.934a2.145,2.145,0,0,1-1.677.7,2.207,2.207,0,0,1-1.43-.463,1.836,1.836,0,0,1-.674-1.234H1.45a3.025,3.025,0,0,0,.02-.318,3.239,3.239,0,0,0-.365-1.557A2.653,2.653,0,0,0,.086.007M-3.263,2.181a1.859,1.859,0,0,1,.6-1.2A1.827,1.827,0,0,1-1.4.515,1.8,1.8,0,0,1-.135.982a1.86,1.86,0,0,1,.6,1.2Z" transform="translate(4.314 0.37)"/>
      </g>
      <g id="Group_10" data-name="Group 10" transform="translate(49.673 0.625)">
        <path id="Path_11" data-name="Path 11" class="cls-2" d="M.11.134A3.458,3.458,0,0,0,.964-2.392V-6.753H-.1v4.319A2.674,2.674,0,0,1-.658-.577,2.079,2.079,0,0,1-2.269.03q-2.16,0-2.159-2.464V-6.753h-1.1v4.361A3.462,3.462,0,0,0-4.668.128,3.173,3.173,0,0,0-2.28,1,3.193,3.193,0,0,0,.11.134" transform="translate(5.523 6.753)"/>
      </g>
      <g id="Group_11" data-name="Group 11" transform="translate(57.627 2.435)">
        <path id="Path_12" data-name="Path 12" class="cls-2" d="M.048.1A3.948,3.948,0,0,1-1.057-.066a3.124,3.124,0,0,1-.932-.44l-.439.831A2.974,2.974,0,0,0-1.4.815a4.881,4.881,0,0,0,1.371.193A3.169,3.169,0,0,0,1.807.54,1.448,1.448,0,0,0,2.482-.714a1.3,1.3,0,0,0-.307-.921A1.72,1.72,0,0,0,1.435-2.1,8.693,8.693,0,0,0,.3-2.357q-.526-.1-.816-.176A1.231,1.231,0,0,1-1-2.774a.553.553,0,0,1-.2-.449A.656.656,0,0,1-.849-3.8a1.9,1.9,0,0,1,1.018-.22,3,3,0,0,1,1.677.461L2.3-4.4a3.167,3.167,0,0,0-.955-.383A5.015,5.015,0,0,0,.181-4.92a2.949,2.949,0,0,0-1.764.475,1.492,1.492,0,0,0-.659,1.267,1.34,1.34,0,0,0,.318.952,1.751,1.751,0,0,0,.763.484,7.479,7.479,0,0,0,1.144.249c.344.06.608.113.793.161a1.208,1.208,0,0,1,.467.223.514.514,0,0,1,.186.416Q1.429.1.048.1" transform="translate(2.428 4.92)"/>
      </g>
      <g id="Group_12" data-name="Group 12" transform="translate(63.425 2.435)">
        <path id="Path_13" data-name="Path 13" class="cls-2" d="M.086.007A2.9,2.9,0,0,0-1.4-.37,2.957,2.957,0,0,0-2.9.007,2.706,2.706,0,0,0-3.937,1.063a3.092,3.092,0,0,0-.377,1.525,3.03,3.03,0,0,0,.389,1.534,2.721,2.721,0,0,0,1.1,1.059,3.468,3.468,0,0,0,1.633.377A3.427,3.427,0,0,0,.118,5.317a2.554,2.554,0,0,0,.981-.7L.518,3.934a2.145,2.145,0,0,1-1.677.7,2.207,2.207,0,0,1-1.43-.463,1.836,1.836,0,0,1-.674-1.234H1.45a3.025,3.025,0,0,0,.02-.318,3.239,3.239,0,0,0-.365-1.557A2.653,2.653,0,0,0,.086.007M-3.263,2.181a1.855,1.855,0,0,1,.6-1.2A1.823,1.823,0,0,1-1.4.515,1.8,1.8,0,0,1-.134.982a1.863,1.863,0,0,1,.6,1.2Z" transform="translate(4.314 0.37)"/>
      </g>
      <g id="Group_13" data-name="Group 13" transform="translate(70.777 2.434)">
        <path id="Path_14" data-name="Path 14" class="cls-2" d="M.02.02V-.955H-.988V4.853H.064V1.961A2.014,2.014,0,0,1,.552.508,1.772,1.772,0,0,1,1.894,0c.1,0,.183,0,.241.009V-1.009a2.938,2.938,0,0,0-1.3.262A1.789,1.789,0,0,0,.02.02" transform="translate(0.988 1.009)"/>
      </g>
      <g id="Group_14" data-name="Group 14" transform="translate(77.965 0.538)">
        <path id="Path_15" data-name="Path 15" class="cls-2" d="M.05.026A3.231,3.231,0,0,1,1.623-.351,3.088,3.088,0,0,1,3.848.534l.678-.677a3.421,3.421,0,0,0-1.276-.883,4.49,4.49,0,0,0-1.671-.3,4.395,4.395,0,0,0-2.111.5A3.737,3.737,0,0,0-2,.579,3.9,3.9,0,0,0-2.53,2.6,3.856,3.856,0,0,0-2,4.606,3.783,3.783,0,0,0-.535,6.01a4.291,4.291,0,0,0,2.093.508,4.931,4.931,0,0,0,1.579-.252,4.08,4.08,0,0,0,1.325-.722V2.552H3.41v2.5a3.239,3.239,0,0,1-1.8.495A3.178,3.178,0,0,1,.05,5.159,2.792,2.792,0,0,1-1.039,4.1a2.923,2.923,0,0,1-.4-1.5,2.943,2.943,0,0,1,.4-1.519A2.779,2.779,0,0,1,.05.026" transform="translate(2.53 1.326)"/>
      </g>
      <g id="Group_15" data-name="Group 15" transform="translate(87.006 2.434)">
        <path id="Path_16" data-name="Path 16" class="cls-2" d="M.02.02V-.955H-.988V4.853H.064V1.961A2.014,2.014,0,0,1,.552.508,1.772,1.772,0,0,1,1.894,0c.1,0,.183,0,.241.009V-1.009a2.941,2.941,0,0,0-1.3.262A1.794,1.794,0,0,0,.02.02" transform="translate(0.988 1.009)"/>
      </g>
      <g id="Group_16" data-name="Group 16" transform="translate(90.941 2.435)">
        <path id="Path_17" data-name="Path 17" class="cls-2" d="M.089.007A3.144,3.144,0,0,0-1.461-.37,3.17,3.17,0,0,0-3.017.007,2.715,2.715,0,0,0-4.1,1.06a3,3,0,0,0-.389,1.528A3,3,0,0,0-4.1,4.115a2.792,2.792,0,0,0,1.08,1.059,3.151,3.151,0,0,0,1.556.383,3.125,3.125,0,0,0,1.55-.383A2.794,2.794,0,0,0,1.162,4.115a2.989,2.989,0,0,0,.39-1.528,2.987,2.987,0,0,0-.39-1.528A2.716,2.716,0,0,0,.089.007M.236,3.654a1.818,1.818,0,0,1-.7.725,1.972,1.972,0,0,1-1,.256,1.975,1.975,0,0,1-1-.256,1.861,1.861,0,0,1-.7-.725,2.178,2.178,0,0,1-.257-1.067,2.2,2.2,0,0,1,.257-1.07A1.839,1.839,0,0,1-2.465.8a1.983,1.983,0,0,1,1-.253A1.981,1.981,0,0,1-.46.8a1.8,1.8,0,0,1,.7.717,2.217,2.217,0,0,1,.253,1.07A2.2,2.2,0,0,1,.236,3.654" transform="translate(4.486 0.37)"/>
      </g>
      <g id="Group_17" data-name="Group 17" transform="translate(98.49 2.488)">
        <path id="Path_18" data-name="Path 18" class="cls-2" d="M.086.058A1.979,1.979,0,0,1-.4,1.482a1.737,1.737,0,0,1-1.316.506,1.511,1.511,0,0,1-1.161-.434A1.8,1.8,0,0,1-3.278.279V-2.944H-4.33V.4a2.5,2.5,0,0,0,.669,1.891,2.53,2.53,0,0,0,1.83.643A2.632,2.632,0,0,0-.7,2.684a2.1,2.1,0,0,0,.838-.7v.876h1V-2.944H.086Z" transform="translate(4.33 2.944)"/>
      </g>
      <g id="Group_18" data-name="Group 18" transform="translate(106.073 2.435)">
        <path id="Path_19" data-name="Path 19" class="cls-2" d="M.089.007A3.035,3.035,0,0,0-1.422-.364a2.828,2.828,0,0,0-1.185.243,2.28,2.28,0,0,0-.887.732V-.311H-4.5V7.622H-3.45v-3a2.387,2.387,0,0,0,.881.7,2.694,2.694,0,0,0,1.146.241A3.067,3.067,0,0,0,.089,5.191,2.662,2.662,0,0,0,1.136,4.142a3.093,3.093,0,0,0,.379-1.548,3.077,3.077,0,0,0-.379-1.546A2.659,2.659,0,0,0,.089.007m.1,3.653a1.847,1.847,0,0,1-.7.725,1.983,1.983,0,0,1-1,.256,1.989,1.989,0,0,1-1-.256,1.806,1.806,0,0,1-.7-.725,2.21,2.21,0,0,1-.253-1.067A2.141,2.141,0,0,1-3.2,1.529,1.861,1.861,0,0,1-2.5.813,1.936,1.936,0,0,1-1.51.554a1.981,1.981,0,0,1,1,.253,1.823,1.823,0,0,1,.7.716A2.18,2.18,0,0,1,.45,2.594,2.156,2.156,0,0,1,.193,3.66" transform="translate(4.502 0.364)"/>
      </g>
      <g id="Group_19" data-name="Group 19" transform="translate(0.078 13.685)">
        <path id="Path_20" data-name="Path 20" class="cls-2" d="M.05.026A3.137,3.137,0,0,1,1.6-.357a2.855,2.855,0,0,1,2.158.91l.712-.689A3.333,3.333,0,0,0,3.2-1.028a4.309,4.309,0,0,0-1.644-.3A4.248,4.248,0,0,0-.531-.821,3.729,3.729,0,0,0-1.988.582a3.878,3.878,0,0,0-.526,2.01A3.877,3.877,0,0,0-1.988,4.6,3.732,3.732,0,0,0-.535,6a4.211,4.211,0,0,0,2.076.511A4.362,4.362,0,0,0,3.189,6.21a3.416,3.416,0,0,0,1.277-.9l-.712-.69A2.868,2.868,0,0,1,1.6,5.541,3.126,3.126,0,0,1,.05,5.157,2.775,2.775,0,0,1-1.029,4.1a2.948,2.948,0,0,1-.39-1.506,2.949,2.949,0,0,1,.39-1.507A2.775,2.775,0,0,1,.05.026" transform="translate(2.514 1.332)"/>
      </g>
      <g id="Group_20" data-name="Group 20" transform="translate(7.803 15.582)">
        <path id="Path_21" data-name="Path 21" class="cls-2" d="M.089.007A3.141,3.141,0,0,0-1.461-.37,3.173,3.173,0,0,0-3.017.007,2.756,2.756,0,0,0-4.1,1.06a3,3,0,0,0-.389,1.528A3.016,3.016,0,0,0-4.1,4.118a2.784,2.784,0,0,0,1.08,1.056,3.154,3.154,0,0,0,1.556.383,3.122,3.122,0,0,0,1.55-.383A2.786,2.786,0,0,0,1.162,4.118a3.006,3.006,0,0,0,.39-1.531,3,3,0,0,0-.39-1.528A2.757,2.757,0,0,0,.089.007m.147,3.65a1.823,1.823,0,0,1-.7.722,1.944,1.944,0,0,1-1,.259,1.946,1.946,0,0,1-1-.259,1.871,1.871,0,0,1-.7-.722,2.179,2.179,0,0,1-.258-1.07,2.165,2.165,0,0,1,.258-1.067,1.838,1.838,0,0,1,.7-.72,2.013,2.013,0,0,1,1-.25A2.01,2.01,0,0,1-.46.8a1.792,1.792,0,0,1,.7.72A2.2,2.2,0,0,1,.489,2.588a2.211,2.211,0,0,1-.253,1.07" transform="translate(4.486 0.37)"/>
      </g>
      <g id="Group_21" data-name="Group 21" transform="translate(15.407 15.582)">
        <path id="Path_22" data-name="Path 22" class="cls-2" d="M.06,0A3.014,3.014,0,0,0-1.172.241,2.066,2.066,0,0,0-2.032.93V.053H-3.04V5.862h1.052V2.872A1.948,1.948,0,0,1-1.5,1.442,1.811,1.811,0,0,1-.148.942a1.523,1.523,0,0,1,1.162.428A1.772,1.772,0,0,1,1.42,2.639V5.862H2.471V2.521A2.513,2.513,0,0,0,1.82.643,2.4,2.4,0,0,0,.06,0" transform="translate(3.04)"/>
      </g>
      <g id="Group_22" data-name="Group 22" transform="translate(22.147 13.249)">
        <path id="Path_23" data-name="Path 23" class="cls-2" d="M.056,0A1.91,1.91,0,0,0-1.357.5a1.853,1.853,0,0,0-.5,1.37v.514h-.985v.869h.985V8.2H-.808V3.255H.858V2.386H-.831v-.5c0-.681.313-1.02.942-1.02a1.323,1.323,0,0,1,.812.273l.317-.8A1.621,1.621,0,0,0,.715.087,2.449,2.449,0,0,0,.056,0" transform="translate(2.846)"/>
      </g>
      <g id="Group_23" data-name="Group 23" transform="translate(26.334 15.582)">
        <path id="Path_24" data-name="Path 24" class="cls-2" d="M.086.007A2.9,2.9,0,0,0-1.4-.37,2.957,2.957,0,0,0-2.9.007,2.727,2.727,0,0,0-3.937,1.066a3.072,3.072,0,0,0-.377,1.522,3.027,3.027,0,0,0,.389,1.534,2.7,2.7,0,0,0,1.1,1.058,3.427,3.427,0,0,0,1.634.378A3.427,3.427,0,0,0,.118,5.317a2.53,2.53,0,0,0,.981-.7L.518,3.937a2.155,2.155,0,0,1-1.677.7,2.192,2.192,0,0,1-1.43-.467,1.825,1.825,0,0,1-.674-1.233H1.45a3.041,3.041,0,0,0,.02-.318,3.227,3.227,0,0,0-.365-1.554A2.675,2.675,0,0,0,.086.007M-3.263,2.184a1.874,1.874,0,0,1,.6-1.208A1.825,1.825,0,0,1-1.4.518,1.807,1.807,0,0,1-.135.982a1.867,1.867,0,0,1,.6,1.2Z" transform="translate(4.314 0.37)"/>
      </g>
      <g id="Group_24" data-name="Group 24" transform="translate(33.686 15.583)">
        <path id="Path_25" data-name="Path 25" class="cls-2" d="M.02.02V-.958H-.988V4.85H.064V1.958A2.012,2.012,0,0,1,.552.508,1.763,1.763,0,0,1,1.894,0a1.67,1.67,0,0,1,.241.012v-1.02a2.984,2.984,0,0,0-1.3.261A1.806,1.806,0,0,0,.02.02" transform="translate(0.988 1.011)"/>
      </g>
      <g id="Group_25" data-name="Group 25" transform="translate(37.62 15.582)">
        <path id="Path_26" data-name="Path 26" class="cls-2" d="M.086.007A2.9,2.9,0,0,0-1.4-.37,2.957,2.957,0,0,0-2.9.007,2.727,2.727,0,0,0-3.937,1.066a3.072,3.072,0,0,0-.377,1.522,3.027,3.027,0,0,0,.389,1.534,2.7,2.7,0,0,0,1.1,1.058,3.427,3.427,0,0,0,1.634.378A3.427,3.427,0,0,0,.118,5.317a2.53,2.53,0,0,0,.981-.7L.518,3.937a2.155,2.155,0,0,1-1.677.7,2.192,2.192,0,0,1-1.43-.467,1.825,1.825,0,0,1-.674-1.233H1.45a3.041,3.041,0,0,0,.02-.318,3.227,3.227,0,0,0-.365-1.554A2.675,2.675,0,0,0,.086.007M-3.263,2.184a1.874,1.874,0,0,1,.6-1.208A1.825,1.825,0,0,1-1.4.518,1.807,1.807,0,0,1-.135.982a1.867,1.867,0,0,1,.6,1.2Z" transform="translate(4.314 0.37)"/>
      </g>
      <g id="Group_26" data-name="Group 26" transform="translate(44.973 15.582)">
        <path id="Path_27" data-name="Path 27" class="cls-2" d="M.06,0A3.014,3.014,0,0,0-1.172.241,2.073,2.073,0,0,0-2.032.93V.053H-3.04V5.862h1.052V2.872A1.948,1.948,0,0,1-1.5,1.442,1.811,1.811,0,0,1-.148.942a1.526,1.526,0,0,1,1.163.428,1.777,1.777,0,0,1,.406,1.269V5.862h1.05V2.521A2.517,2.517,0,0,0,1.821.643,2.4,2.4,0,0,0,.06,0" transform="translate(3.04)"/>
      </g>
      <g id="Group_27" data-name="Group 27" transform="translate(52.042 15.583)">
        <path id="Path_28" data-name="Path 28" class="cls-2" d="M.04.023a2.1,2.1,0,0,1,1.026-.25,1.923,1.923,0,0,1,.9.208,1.754,1.754,0,0,1,.679.624l.8-.514a2.256,2.256,0,0,0-.96-.922,3.055,3.055,0,0,0-1.407-.317A3.248,3.248,0,0,0-.507-.771,2.771,2.771,0,0,0-1.6.282,2.967,2.967,0,0,0-1.992,1.81,2.981,2.981,0,0,0-1.6,3.34,2.8,2.8,0,0,0-.507,4.395a3.218,3.218,0,0,0,1.583.383,3.006,3.006,0,0,0,1.407-.32,2.319,2.319,0,0,0,.96-.928l-.8-.5a1.8,1.8,0,0,1-.679.624,1.961,1.961,0,0,1-.9.208A2.1,2.1,0,0,1,.04,3.608a1.8,1.8,0,0,1-.712-.719A2.19,2.19,0,0,1-.929,1.81,2.171,2.171,0,0,1-.672.742,1.822,1.822,0,0,1,.04.023" transform="translate(1.992 1.148)"/>
      </g>
      <g id="Group_28" data-name="Group 28" transform="translate(58.321 15.582)">
        <path id="Path_29" data-name="Path 29" class="cls-2" d="M.086.007A2.9,2.9,0,0,0-1.4-.37,2.957,2.957,0,0,0-2.9.007,2.72,2.72,0,0,0-3.937,1.066a3.072,3.072,0,0,0-.377,1.522,3.027,3.027,0,0,0,.389,1.534,2.69,2.69,0,0,0,1.1,1.058,3.427,3.427,0,0,0,1.634.378A3.427,3.427,0,0,0,.118,5.317a2.53,2.53,0,0,0,.981-.7L.518,3.937a2.155,2.155,0,0,1-1.677.7,2.192,2.192,0,0,1-1.43-.467,1.825,1.825,0,0,1-.674-1.233H1.45a3.041,3.041,0,0,0,.02-.318,3.227,3.227,0,0,0-.365-1.554A2.682,2.682,0,0,0,.086.007M-3.263,2.184a1.874,1.874,0,0,1,.6-1.208A1.825,1.825,0,0,1-1.4.518,1.807,1.807,0,0,1-.135.982a1.867,1.867,0,0,1,.6,1.2Z" transform="translate(4.314 0.37)"/>
      </g>
    </g>
  </g>
</svg>
