<?xml version="1.0" encoding="UTF-8"?><svg id="Export" xmlns="http://www.w3.org/2000/svg" viewBox="0 0 996.5 289.37"><defs><style>.cls-1,.cls-2,.cls-3,.cls-4{stroke-width:0px;}.cls-5{fill:#231f20;font-family:AvenirNextLTPro-Demi, 'Avenir Next LT Pro';font-size:54.28px;font-weight:300;}.cls-2{fill:#969696;}.cls-3{fill:#fff;}.cls-4{fill:#eb1f1f;}</style></defs><rect class="cls-3" x="31.2" y="26.92" width="228.48" height="225.76"/><text class="cls-5" transform="translate(703.25 230.31)"><tspan x="0" y="0"> </tspan></text><path class="cls-2" d="m723.82,224.34l14.82-14.55c1.19-1.16,2.14-2.32,2.85-3.5.71-1.18,1.06-2.52,1.06-4.04,0-1.81-.59-3.25-1.76-4.31-1.18-1.07-2.63-1.6-4.37-1.6-1.85,0-3.33.62-4.45,1.87-1.12,1.25-1.81,2.81-2.06,4.69l-6.35-.98c.18-1.59.63-3.06,1.36-4.4.72-1.34,1.65-2.5,2.77-3.47,1.12-.98,2.43-1.75,3.94-2.31,1.5-.56,3.14-.84,4.91-.84,1.66,0,3.27.24,4.8.71,1.54.47,2.9,1.19,4.1,2.14,1.19.96,2.14,2.14,2.85,3.53.71,1.39,1.06,3.01,1.06,4.86,0,1.23-.16,2.38-.49,3.45-.33,1.07-.77,2.07-1.33,3.01-.56.94-1.21,1.84-1.95,2.69-.74.85-1.55,1.67-2.42,2.47l-11.07,10.58h17.31v5.97h-25.57v-5.97Z"/><path class="cls-2" d="m755.57,210.98c0-3.08.52-5.85,1.55-8.33,1.03-2.48,2.46-4.59,4.29-6.32,1.83-1.74,4-3.08,6.51-4.02,2.51-.94,5.26-1.41,8.22-1.41s5.77.47,8.3,1.41c2.53.94,4.72,2.28,6.57,4.02,1.85,1.74,3.28,3.85,4.32,6.32,1.03,2.48,1.55,5.26,1.55,8.33s-.52,5.75-1.55,8.22c-1.03,2.48-2.47,4.61-4.32,6.4-1.85,1.79-4.04,3.19-6.57,4.18-2.53.99-5.3,1.49-8.3,1.49s-5.71-.5-8.22-1.49c-2.52-.99-4.69-2.39-6.51-4.18-1.83-1.79-3.26-3.93-4.29-6.4-1.03-2.48-1.55-5.22-1.55-8.22Zm7.44,0c0,2.06.32,3.95.95,5.67.63,1.72,1.54,3.21,2.71,4.48,1.18,1.27,2.57,2.25,4.18,2.96,1.61.71,3.39,1.06,5.35,1.06s3.75-.35,5.37-1.06,3.03-1.69,4.21-2.96c1.18-1.27,2.08-2.76,2.71-4.48.63-1.72.95-3.61.95-5.67s-.32-3.84-.95-5.54c-.63-1.7-1.53-3.18-2.69-4.45-1.16-1.27-2.55-2.26-4.18-2.99-1.63-.72-3.44-1.09-5.43-1.09s-3.79.36-5.4,1.09c-1.61.72-2.99,1.72-4.15,2.99-1.16,1.27-2.05,2.75-2.69,4.45-.63,1.7-.95,3.55-.95,5.54Z"/><path class="cls-2" d="m803.01,224.34l14.82-14.55c1.19-1.16,2.14-2.32,2.85-3.5.71-1.18,1.06-2.52,1.06-4.04,0-1.81-.59-3.25-1.76-4.31-1.18-1.07-2.63-1.6-4.37-1.6-1.85,0-3.33.62-4.45,1.87-1.12,1.25-1.81,2.81-2.06,4.69l-6.35-.98c.18-1.59.63-3.06,1.36-4.4.72-1.34,1.65-2.5,2.77-3.47,1.12-.98,2.43-1.75,3.94-2.31,1.5-.56,3.14-.84,4.91-.84,1.66,0,3.27.24,4.8.71,1.54.47,2.9,1.19,4.1,2.14,1.19.96,2.14,2.14,2.85,3.53.71,1.39,1.06,3.01,1.06,4.86,0,1.23-.16,2.38-.49,3.45-.33,1.07-.77,2.07-1.33,3.01-.56.94-1.21,1.84-1.95,2.69-.74.85-1.55,1.67-2.42,2.47l-11.07,10.58h17.31v5.97h-25.57v-5.97Z"/><path class="cls-2" d="m844.97,207.67h1.74c.98,0,1.94-.08,2.9-.24.96-.16,1.84-.46,2.63-.9.8-.43,1.44-1.02,1.93-1.76.49-.74.73-1.71.73-2.9,0-.87-.16-1.65-.49-2.33-.33-.69-.77-1.27-1.33-1.74-.56-.47-1.21-.83-1.95-1.09-.74-.25-1.51-.38-2.31-.38-1.59,0-2.91.45-3.96,1.36-1.05.9-1.77,2.1-2.17,3.58l-6.13-1.57c.33-1.3.88-2.49,1.66-3.56.78-1.07,1.72-1.99,2.82-2.77,1.1-.78,2.34-1.38,3.72-1.82,1.38-.43,2.82-.65,4.34-.65,1.66,0,3.25.23,4.74.68,1.5.45,2.81,1.12,3.94,2.01,1.13.89,2.02,1.98,2.66,3.28.65,1.3.97,2.82.97,4.56,0,2.06-.62,3.9-1.87,5.51-1.25,1.61-2.92,2.67-5.02,3.18v.11c2.35.47,4.26,1.53,5.73,3.18,1.47,1.65,2.2,3.66,2.2,6.05,0,1.99-.39,3.73-1.16,5.21-.77,1.48-1.79,2.71-3.07,3.69s-2.71,1.71-4.3,2.2c-1.59.49-3.2.73-4.83.73s-3.17-.17-4.61-.52c-1.45-.34-2.78-.88-3.99-1.6-1.21-.72-2.28-1.66-3.2-2.82-.92-1.16-1.64-2.53-2.14-4.12l6.08-1.9c.47,1.52,1.35,2.8,2.63,3.85,1.28,1.05,2.96,1.57,5.02,1.57.83,0,1.67-.12,2.52-.35.85-.23,1.61-.61,2.28-1.11.67-.51,1.21-1.16,1.63-1.95.42-.8.62-1.77.62-2.93,0-1.23-.3-2.27-.9-3.12-.6-.85-1.35-1.52-2.25-2.01-.9-.49-1.91-.84-3.01-1.06-1.1-.22-2.16-.33-3.18-.33h-1.63v-5.21Z"/><path class="cls-4" d="m364.92,191.88h9.06l17.86,28.77h.11v-28.77h6.84v38.43h-8.68l-18.24-29.69h-.11v29.69h-6.84v-38.43Z"/><path class="cls-4" d="m438.31,191.88h5.92l16.56,38.43h-7.82l-3.58-8.79h-16.66l-3.47,8.79h-7.65l16.72-38.43Zm8.68,23.77l-5.92-15.63-6.02,15.63h11.94Z"/><path class="cls-4" d="m468.87,191.88h10.69l9.99,27.3h.16l9.88-27.3h10.75v38.43h-6.79v-30.88h-.11l-11.67,30.88h-4.78l-11.51-30.88h-.11v30.88h-6.51v-38.43Z"/><path class="cls-4" d="m523.09,191.88h25.46v5.97h-18.62v9.77h17.64v5.75h-17.64v10.86h19.6v6.08h-26.43v-38.43Z"/><path class="cls-4" d="m561.63,191.88h13.35c1.81,0,3.56.19,5.27.57,1.7.38,3.21,1,4.53,1.87,1.32.87,2.38,2.01,3.18,3.42.8,1.41,1.19,3.13,1.19,5.16,0,2.79-.79,5.06-2.36,6.81-1.57,1.76-3.72,2.94-6.43,3.56l10.26,17.04h-8.25l-8.9-16.28h-4.99v16.28h-6.84v-38.43Zm12.43,16.56c.98,0,1.95-.07,2.93-.22.98-.14,1.85-.42,2.63-.81.78-.4,1.42-.97,1.93-1.71.51-.74.76-1.69.76-2.85,0-1.05-.24-1.91-.71-2.58-.47-.67-1.07-1.2-1.79-1.6-.72-.4-1.55-.67-2.47-.81-.92-.14-1.82-.22-2.69-.22h-6.19v10.8h5.59Z"/><path class="cls-4" d="m602.28,191.88h6.84v38.43h-6.84v-38.43Z"/><path class="cls-4" d="m649.61,200.89c-1.01-1.37-2.33-2.38-3.96-3.01-1.63-.63-3.22-.95-4.78-.95-1.99,0-3.8.36-5.43,1.09-1.63.72-3.03,1.72-4.21,2.99-1.18,1.27-2.08,2.75-2.71,4.45-.63,1.7-.95,3.55-.95,5.54,0,2.1.31,4.02.92,5.75.61,1.74,1.49,3.23,2.63,4.48,1.14,1.25,2.51,2.22,4.1,2.9,1.59.69,3.38,1.03,5.37,1.03s3.89-.41,5.48-1.22c1.59-.81,2.88-1.89,3.85-3.23l5.48,3.85c-1.7,2.14-3.78,3.79-6.24,4.97-2.46,1.18-5.34,1.76-8.63,1.76-3,0-5.76-.5-8.28-1.49-2.52-.99-4.68-2.39-6.49-4.18-1.81-1.79-3.22-3.93-4.23-6.4-1.01-2.48-1.52-5.22-1.52-8.22s.53-5.85,1.6-8.33c1.07-2.48,2.53-4.59,4.4-6.32,1.86-1.74,4.06-3.08,6.59-4.02,2.53-.94,5.28-1.41,8.25-1.41,1.23,0,2.51.12,3.85.35,1.34.24,2.62.6,3.85,1.09,1.23.49,2.39,1.09,3.47,1.82,1.09.72,2.01,1.59,2.77,2.61l-5.21,4.12Z"/><path class="cls-4" d="m676.43,191.88h5.92l16.56,38.43h-7.82l-3.58-8.79h-16.66l-3.47,8.79h-7.65l16.72-38.43Zm8.68,23.77l-5.92-15.63-6.02,15.63h11.94Z"/><path class="cls-1" d="m421.7,87.23c-2.05-2.61-4.74-4.69-8.05-6.23-3.31-1.54-6.51-2.31-9.59-2.31-1.59,0-3.2.14-4.83.42-1.63.28-3.1.82-4.41,1.61-1.31.79-2.4,1.82-3.29,3.08-.89,1.26-1.33,2.87-1.33,4.83,0,1.68.35,3.08,1.05,4.2.7,1.12,1.73,2.1,3.08,2.94,1.35.84,2.96,1.61,4.83,2.31,1.87.7,3.97,1.43,6.3,2.17,3.36,1.12,6.86,2.36,10.5,3.71,3.64,1.35,6.96,3.15,9.94,5.39,2.99,2.24,5.46,5.02,7.42,8.33,1.96,3.32,2.94,7.44,2.94,12.39,0,5.69-1.05,10.61-3.15,14.77s-4.92,7.58-8.47,10.29c-3.55,2.71-7.61,4.71-12.18,6.02-4.57,1.3-9.29,1.96-14.14,1.96-7.1,0-13.95-1.24-20.58-3.71-6.63-2.47-12.14-6-16.52-10.57l15.68-15.96c2.43,2.99,5.62,5.49,9.59,7.49,3.97,2.01,7.91,3.01,11.83,3.01,1.77,0,3.5-.18,5.18-.56,1.68-.37,3.15-.98,4.41-1.82,1.26-.84,2.26-1.96,3.01-3.36.75-1.4,1.12-3.08,1.12-5.04s-.47-3.45-1.4-4.76c-.94-1.3-2.26-2.49-3.99-3.57-1.73-1.07-3.87-2.05-6.44-2.94-2.57-.89-5.48-1.84-8.75-2.87-3.17-1.03-6.28-2.24-9.31-3.64-3.04-1.4-5.74-3.2-8.12-5.39-2.38-2.19-4.29-4.85-5.74-7.98-1.45-3.13-2.17-6.93-2.17-11.41,0-5.51,1.12-10.22,3.36-14.14,2.24-3.92,5.18-7.14,8.82-9.66,3.64-2.52,7.74-4.36,12.32-5.53,4.57-1.16,9.19-1.75,13.86-1.75,5.6,0,11.32,1.03,17.15,3.08,5.83,2.05,10.94,5.09,15.33,9.1l-15.26,16.1Z"/><path class="cls-1" d="m538.67,139.53c-2.01,4.9-4.88,9.1-8.61,12.6-3.74,3.5-8.24,6.23-13.51,8.19-5.27,1.96-11.13,2.94-17.57,2.94s-12.41-.98-17.64-2.94c-5.23-1.96-9.66-4.69-13.3-8.19-3.64-3.5-6.44-7.7-8.4-12.6-1.96-4.9-2.94-10.34-2.94-16.31v-61.74h23.8v59.78c0,2.71.35,5.27,1.05,7.7.7,2.43,1.77,4.6,3.22,6.51,1.45,1.92,3.36,3.43,5.74,4.55,2.38,1.12,5.25,1.68,8.61,1.68s6.23-.56,8.61-1.68c2.38-1.12,4.31-2.64,5.81-4.55,1.49-1.91,2.56-4.08,3.22-6.51.65-2.43.98-5,.98-7.7v-59.78h23.94v61.74c0,5.98-1,11.41-3.01,16.31"/><path class="cls-1" d="m637.65,160.74c-6.49,1.59-13.56,2.38-21.21,2.38s-15.24-1.26-21.91-3.78c-6.67-2.52-12.41-6.07-17.22-10.64-4.81-4.57-8.56-10.06-11.27-16.45-2.71-6.39-4.06-13.51-4.06-21.36s1.38-15.12,4.13-21.56c2.76-6.44,6.56-11.92,11.41-16.45,4.85-4.53,10.54-8,17.08-10.43,6.53-2.42,13.58-3.64,21.14-3.64s15.12,1.19,21.84,3.57c6.72,2.38,12.18,5.58,16.38,9.59l-15.12,17.22c-2.33-2.7-5.41-4.92-9.24-6.65s-8.17-2.59-13.02-2.59c-4.2,0-8.08.77-11.62,2.31-3.55,1.54-6.63,3.69-9.24,6.44-2.61,2.75-4.64,6.02-6.09,9.8-1.45,3.78-2.17,7.91-2.17,12.39s.65,8.78,1.96,12.6c1.3,3.83,3.24,7.12,5.81,9.87,2.56,2.76,5.74,4.91,9.52,6.44,3.78,1.54,8.1,2.31,12.95,2.31,2.8,0,5.46-.21,7.98-.63,2.52-.42,4.85-1.1,7-2.03v-18.06h-18.9v-19.32h40.88v52.5c-4.86,2.52-10.52,4.57-17.01,6.16"/><path class="cls-1" d="m750.85,158.85c-6.44,2.94-13.86,4.41-22.26,4.41-7.65,0-14.72-1.26-21.21-3.78-6.49-2.52-12.11-6.09-16.87-10.71-4.76-4.62-8.49-10.15-11.2-16.59s-4.06-13.53-4.06-21.28,1.38-15.12,4.13-21.56c2.76-6.44,6.56-11.92,11.41-16.45,4.85-4.52,10.55-8,17.08-10.43,6.53-2.42,13.58-3.64,21.14-3.64,7,0,13.88,1.24,20.65,3.71,6.77,2.47,12.25,6.09,16.45,10.85l-16.24,16.24c-2.24-3.08-5.18-5.37-8.82-6.86-3.64-1.49-7.38-2.24-11.2-2.24-4.2,0-8.05.77-11.55,2.31-3.5,1.54-6.51,3.66-9.03,6.37-2.52,2.71-4.48,5.91-5.88,9.59-1.4,3.69-2.1,7.72-2.1,12.11s.7,8.59,2.1,12.32c1.4,3.73,3.33,6.93,5.81,9.59,2.47,2.66,5.44,4.74,8.89,6.23,3.45,1.5,7.23,2.24,11.34,2.24,4.76,0,8.91-.93,12.46-2.8,3.55-1.87,6.39-4.29,8.54-7.28l16.66,15.68c-4.39,5.04-9.8,9.03-16.24,11.97"/><polygon class="cls-1" points="966.04 160.6 926.14 95.77 925.72 95.77 926.27 160.6 903.04 160.6 903.04 61.47 930.33 61.47 970.1 126.15 970.52 126.15 969.96 61.47 993.2 61.47 993.2 160.6 966.04 160.6"/><path class="cls-1" d="m862.53,110.89c0,16.73-13.77,30.29-30.75,30.29s-30.75-13.56-30.75-30.29,13.76-30.29,30.75-30.29,30.75,13.56,30.75,30.29m23.17,0c0-29.34-24.14-53.13-53.92-53.13s-53.92,23.78-53.92,53.13,24.14,53.13,53.92,53.13,53.92-23.78,53.92-53.13"/><rect class="cls-4" x=".17" y=".68" width="289.17" height="288.66" rx="26.47" ry="26.47"/><path class="cls-3" d="m232.65,240.79V75.4c0-3.43-2.78-6.21-6.21-6.21H63.06c-3.43,0-6.21,2.78-6.21,6.21v118.29c0,3.43,2.78,6.21,6.21,6.21h127.31l42.28,40.9Z"/></svg>