<?xml version="1.0" encoding="UTF-8"?><svg id="Horizontal" xmlns="http://www.w3.org/2000/svg" width="259.18" height="75" viewBox="0 0 1000 289.37"><defs><style>.cls-1{fill:#fff;}.cls-1,.cls-2{stroke-width:0px;}.cls-2{fill:#eb1f1f;}</style></defs><path class="cls-1" d="m868.45,139.2c0,16.84-13.86,30.5-30.96,30.5s-30.96-13.65-30.96-30.5,13.86-30.5,30.96-30.5,30.96,13.65,30.96,30.5m23.33,0c0-29.54-24.31-53.49-54.29-53.49s-54.28,23.95-54.28,53.49,24.3,53.49,54.28,53.49,54.29-23.95,54.29-53.49"/><polygon class="cls-1" points="976.6 89.44 977.17 154.56 976.74 154.56 936.71 89.44 909.22 89.44 909.22 189.24 932.62 189.24 932.06 123.97 932.48 123.97 972.66 189.24 1000 189.24 1000 89.44 976.6 89.44"/><path class="cls-1" d="m424.62,115.37c-2.07-2.63-4.77-4.72-8.1-6.27-3.34-1.55-6.56-2.33-9.66-2.33-1.6,0-3.22.14-4.86.42-1.65.28-3.13.82-4.44,1.62-1.32.8-2.42,1.83-3.31,3.1-.89,1.27-1.34,2.89-1.34,4.86,0,1.69.35,3.1,1.06,4.23.71,1.13,1.74,2.12,3.1,2.96,1.36.85,2.98,1.62,4.86,2.33,1.88.71,3.99,1.43,6.35,2.18,3.38,1.13,6.9,2.38,10.57,3.74,3.66,1.36,7,3.17,10.01,5.42,3.01,2.26,5.5,5.05,7.47,8.39,1.97,3.34,2.96,7.49,2.96,12.47,0,5.73-1.06,10.69-3.17,14.87-2.12,4.18-4.96,7.64-8.53,10.36-3.57,2.73-7.66,4.75-12.26,6.06-4.6,1.31-9.35,1.97-14.24,1.97-7.14,0-14.05-1.24-20.72-3.74-6.68-2.49-12.22-6.04-16.63-10.64l15.79-16.07c2.44,3.01,5.66,5.52,9.66,7.54,3.99,2.02,7.96,3.03,11.91,3.03,1.79,0,3.53-.19,5.22-.56,1.69-.37,3.17-.98,4.44-1.83,1.27-.85,2.28-1.98,3.03-3.38.75-1.41,1.13-3.1,1.13-5.07s-.47-3.48-1.41-4.79c-.94-1.31-2.28-2.51-4.01-3.59-1.74-1.08-3.9-2.07-6.48-2.96-2.59-.89-5.52-1.86-8.81-2.89-3.2-1.03-6.32-2.26-9.37-3.66-3.06-1.41-5.78-3.22-8.18-5.43-2.4-2.2-4.32-4.88-5.78-8.03-1.46-3.15-2.18-6.98-2.18-11.49,0-5.54,1.13-10.29,3.38-14.23,2.26-3.95,5.21-7.19,8.88-9.73,3.66-2.54,7.8-4.39,12.4-5.57,4.6-1.17,9.25-1.76,13.95-1.76,5.64,0,11.39,1.03,17.27,3.1,5.87,2.07,11.02,5.12,15.43,9.16l-15.36,16.21Z"/><path class="cls-1" d="m542.39,168.02c-2.02,4.94-4.91,9.16-8.67,12.69-3.76,3.52-8.3,6.27-13.6,8.25-5.31,1.97-11.21,2.96-17.69,2.96s-12.5-.99-17.76-2.96c-5.26-1.97-9.72-4.72-13.39-8.25-3.67-3.53-6.49-7.75-8.46-12.69-1.97-4.94-2.96-10.41-2.96-16.42v-62.16h23.96v60.19c0,2.73.35,5.31,1.06,7.75.71,2.45,1.78,4.63,3.24,6.55,1.46,1.93,3.38,3.45,5.78,4.58,2.4,1.13,5.29,1.69,8.67,1.69s6.27-.56,8.67-1.69c2.4-1.13,4.34-2.65,5.85-4.58,1.5-1.92,2.58-4.11,3.24-6.55.65-2.44.99-5.03.99-7.75v-60.19h24.1v62.16c0,6.01-1.01,11.49-3.03,16.42"/><path class="cls-1" d="m642.04,189.38c-6.53,1.6-13.65,2.4-21.35,2.4s-15.34-1.27-22.06-3.8c-6.72-2.54-12.5-6.11-17.34-10.71-4.84-4.6-8.62-10.13-11.35-16.56-2.73-6.44-4.09-13.6-4.09-21.5s1.38-15.22,4.16-21.71c2.77-6.48,6.6-12,11.49-16.56,4.89-4.56,10.62-8.05,17.2-10.5,6.58-2.44,13.67-3.66,21.29-3.66s15.22,1.2,21.99,3.59c6.76,2.4,12.26,5.62,16.49,9.66l-15.22,17.34c-2.35-2.72-5.45-4.95-9.3-6.69-3.85-1.74-8.23-2.61-13.11-2.61-4.23,0-8.13.77-11.7,2.33-3.57,1.55-6.68,3.71-9.3,6.48-2.63,2.77-4.68,6.06-6.13,9.87-1.46,3.81-2.18,7.96-2.18,12.48s.66,8.83,1.97,12.68c1.32,3.86,3.27,7.17,5.85,9.94,2.58,2.77,5.78,4.94,9.58,6.48,3.81,1.55,8.15,2.33,13.04,2.33,2.82,0,5.5-.21,8.04-.64,2.54-.42,4.88-1.1,7.04-2.04v-18.19h-19.03v-19.45h41.16v52.86c-4.89,2.54-10.6,4.6-17.13,6.2"/><path class="cls-1" d="m756.01,187.47c-6.48,2.96-13.96,4.44-22.41,4.44-7.71,0-14.82-1.27-21.35-3.8-6.53-2.54-12.19-6.13-16.98-10.78-4.79-4.65-8.56-10.22-11.28-16.7-2.73-6.49-4.09-13.63-4.09-21.43s1.39-15.22,4.16-21.71c2.77-6.49,6.6-12.01,11.49-16.57,4.89-4.56,10.62-8.05,17.2-10.5,6.57-2.44,13.67-3.66,21.28-3.66,7.05,0,13.98,1.25,20.79,3.74,6.81,2.49,12.33,6.13,16.56,10.92l-16.35,16.35c-2.25-3.1-5.21-5.4-8.88-6.91-3.67-1.5-7.43-2.25-11.28-2.25-4.23,0-8.1.77-11.63,2.33-3.53,1.55-6.56,3.69-9.09,6.41-2.54,2.73-4.51,5.94-5.92,9.66-1.41,3.71-2.12,7.78-2.12,12.19s.71,8.65,2.12,12.4c1.41,3.76,3.36,6.98,5.85,9.66,2.49,2.68,5.47,4.77,8.95,6.27,3.48,1.51,7.28,2.26,11.42,2.26,4.79,0,8.98-.94,12.55-2.82,3.57-1.88,6.43-4.32,8.6-7.33l16.77,15.79c-4.42,5.08-9.87,9.09-16.35,12.05"/><path class="cls-2" d="m289.2,262.03V26.98c0-14.58-11.83-26.41-26.41-26.41H27.25C12.66.57.83,12.4.83,26.98v235.05c0,14.58,11.83,26.41,26.41,26.41h235.58c14.58,0,26.41-11.83,26.41-26.41"/><path class="cls-1" d="m232.68,240.01l-42.15-40.79H63.56c-3.41,0-6.2-2.75-6.2-6.2v-117.98c0-3.41,2.75-6.2,6.2-6.2h162.96c3.41,0,6.2,2.75,6.2,6.2v164.93l-.04.04Z"/></svg>