<?xml version="1.0" encoding="UTF-8"?><svg xmlns="http://www.w3.org/2000/svg" xmlns:xlink="http://www.w3.org/1999/xlink" width="113.293" height="170.011" viewBox="0 0 225 287"><defs><style>.cls-1{clip-path:url(#clippath);}.cls-2{fill:none;}.cls-2,.cls-3,.cls-4{stroke-width:0px;}.cls-3{fill:#fff;}.cls-4{fill:#eb1f1f;}</style><clipPath id="clippath"><rect class="cls-2" x=".12" y=".34" width="224.76" height="286.33"/></clipPath></defs><g id="Stacked"><g class="cls-1"><path class="cls-3" d="m21.63,259.35c-.73-.93-1.69-1.67-2.86-2.21-1.18-.55-2.31-.82-3.41-.82-.56,0-1.14.05-1.72.15-.58.1-1.1.29-1.57.57-.46.28-.86.65-1.17,1.1-.32.45-.47,1.02-.47,1.72,0,.6.13,1.1.37,1.49.25.4.62.75,1.1,1.05.48.3,1.05.57,1.72.82.66.25,1.41.51,2.24.77,1.2.4,2.44.84,3.73,1.32,1.3.48,2.47,1.12,3.53,1.92,1.06.8,1.94,1.78,2.64,2.96.7,1.18,1.05,2.65,1.05,4.41,0,2.02-.37,3.77-1.12,5.25-.75,1.48-1.75,2.7-3.01,3.66-1.26.96-2.71,1.68-4.33,2.14-1.63.46-3.3.7-5.03.7-2.52,0-4.96-.44-7.32-1.32-2.36-.88-4.32-2.13-5.88-3.76l5.58-5.68c.86,1.06,2,1.95,3.41,2.67,1.41.71,2.81,1.07,4.21,1.07.63,0,1.25-.06,1.84-.2.6-.13,1.12-.35,1.57-.65.45-.3.8-.7,1.07-1.19.26-.5.4-1.1.4-1.79s-.17-1.23-.5-1.69c-.33-.46-.81-.89-1.42-1.27-.62-.38-1.38-.73-2.29-1.05-.91-.31-1.95-.66-3.11-1.02-1.13-.36-2.23-.8-3.31-1.29-1.08-.5-2.04-1.14-2.89-1.92-.85-.78-1.53-1.73-2.04-2.84-.51-1.11-.77-2.46-.77-4.06,0-1.96.4-3.64,1.2-5.03.8-1.39,1.84-2.54,3.13-3.44,1.3-.9,2.76-1.55,4.38-1.97,1.62-.42,3.27-.62,4.93-.62,1.99,0,4.02.37,6.1,1.1,2.07.73,3.89,1.81,5.45,3.24l-5.43,5.72Z"/><path class="cls-3" d="m63.23,277.95c-.71,1.74-1.74,3.24-3.06,4.48-1.33,1.24-2.93,2.21-4.81,2.91-1.88.7-3.96,1.04-6.25,1.04s-4.41-.35-6.27-1.04c-1.86-.7-3.44-1.67-4.73-2.91-1.3-1.25-2.29-2.74-2.99-4.48-.7-1.74-1.05-3.68-1.05-5.8v-21.96h8.47v21.26c0,.96.12,1.87.37,2.74.25.86.63,1.64,1.14,2.31.52.68,1.2,1.22,2.04,1.62.85.4,1.87.6,3.06.6s2.21-.2,3.06-.6c.85-.4,1.54-.94,2.07-1.62.53-.68.91-1.45,1.14-2.31.23-.86.35-1.78.35-2.74v-21.26h8.52v21.96c0,2.13-.36,4.06-1.07,5.8"/><path class="cls-3" d="m98.43,285.5c-2.31.56-4.82.85-7.54.85s-5.42-.45-7.79-1.34c-2.37-.9-4.41-2.16-6.12-3.78-1.71-1.63-3.05-3.58-4.01-5.85-.96-2.27-1.44-4.81-1.44-7.59s.49-5.38,1.47-7.67c.98-2.29,2.33-4.24,4.06-5.85,1.73-1.61,3.75-2.85,6.08-3.71,2.32-.86,4.83-1.3,7.52-1.3s5.38.42,7.77,1.27c2.39.85,4.33,1.98,5.83,3.41l-5.38,6.12c-.83-.96-1.93-1.75-3.29-2.37-1.36-.61-2.9-.92-4.63-.92-1.49,0-2.87.27-4.13.82-1.26.55-2.36,1.31-3.29,2.29-.93.98-1.65,2.14-2.17,3.49-.51,1.34-.77,2.81-.77,4.41s.23,3.12.7,4.48c.46,1.36,1.15,2.53,2.07,3.51.91.98,2.04,1.74,3.38,2.29s2.88.82,4.61.82c.99,0,1.94-.07,2.84-.22.9-.15,1.73-.39,2.49-.72v-6.42h-6.72v-6.87h14.54v18.67c-1.73.9-3.74,1.63-6.05,2.19"/><path class="cls-3" d="m138.69,284.82c-2.29,1.05-4.93,1.57-7.92,1.57-2.72,0-5.24-.45-7.54-1.34-2.31-.9-4.31-2.17-6-3.81-1.69-1.65-3.02-3.61-3.98-5.9-.96-2.29-1.44-4.81-1.44-7.57s.49-5.38,1.47-7.67c.98-2.29,2.33-4.24,4.06-5.85,1.73-1.61,3.75-2.85,6.08-3.71,2.32-.86,4.83-1.3,7.52-1.3,2.49,0,4.94.44,7.34,1.32,2.41.88,4.36,2.17,5.85,3.86l-5.77,5.77c-.8-1.1-1.84-1.91-3.14-2.44-1.3-.53-2.62-.8-3.98-.8-1.49,0-2.86.27-4.11.82-1.25.55-2.32,1.3-3.21,2.27s-1.59,2.1-2.09,3.41c-.5,1.31-.75,2.75-.75,4.31s.25,3.05.75,4.38c.5,1.33,1.19,2.46,2.07,3.41.88.95,1.93,1.69,3.16,2.22,1.23.53,2.57.8,4.04.8,1.69,0,3.17-.33,4.43-1s2.27-1.53,3.04-2.59l5.93,5.58c-1.56,1.79-3.49,3.21-5.78,4.26"/><polygon class="cls-3" points="216.62 250.19 216.82 273.2 216.66 273.2 202.52 250.19 192.81 250.19 192.81 285.44 201.08 285.44 200.88 262.39 201.03 262.39 215.22 285.44 224.88 285.44 224.88 250.19 216.62 250.19"/><path class="cls-3" d="m178.41,267.77c0,5.95-4.9,10.77-10.94,10.77s-10.93-4.82-10.93-10.77,4.89-10.77,10.93-10.77,10.94,4.82,10.94,10.77m8.24,0c0-10.43-8.59-18.89-19.18-18.89s-19.18,8.46-19.18,18.89,8.59,18.89,19.18,18.89,19.18-8.46,19.18-18.89"/></g><path class="cls-3" d="m180.06,180.93v-114.33c0-7.17-5.82-12.99-12.99-12.99H57.93c-7.17,0-12.99,5.82-12.99,12.99v75.35c0,7.18,5.82,12.99,12.99,12.99h94.41l27.72,25.99Z"/><rect class="cls-2" x=".12" y=".34" width="224.76" height="286.33"/></g><g id="Horizontal"><path class="cls-4" d="m223.86,203.09V21.49c0-11.27-9.14-20.41-20.41-20.41H21.47C10.2,1.08,1.06,10.22,1.06,21.49v181.6c0,11.27,9.14,20.41,20.41,20.41h182.02c11.27,0,20.41-9.14,20.41-20.41"/><path class="cls-3" d="m180.19,186.08l-32.56-31.52H49.52c-2.63,0-4.79-2.13-4.79-4.79V58.62c0-2.63,2.13-4.79,4.79-4.79h125.9c2.63,0,4.79,2.13,4.79,4.79v127.43l-.03.03Z"/></g></svg>