<?xml version="1.0" encoding="UTF-8"?><svg xmlns="http://www.w3.org/2000/svg" xmlns:xlink="http://www.w3.org/1999/xlink" width="586" height="675" viewBox="25 -80 439.5 506.25"><defs><style>.cls-1{clip-path:url(#clippath);}.cls-2{fill:none;}.cls-2,.cls-3,.cls-4,.cls-5,.cls-6,.cls-7,.cls-8,.cls-9,.cls-10,.cls-11,.cls-12,.cls-13,.cls-14,.cls-15{stroke-width:0px;}.cls-3{fill:url(#linear-gradient);}.cls-4{fill:url(#linear-gradient-11);}.cls-5{fill:url(#linear-gradient-12);}.cls-6{fill:url(#linear-gradient-10);}.cls-16{clip-path:url(#clippath-1);}.cls-17{clip-path:url(#clippath-4);}.cls-18{clip-path:url(#clippath-3);}.cls-19{clip-path:url(#clippath-2);}.cls-20{clip-path:url(#clippath-7);}.cls-21{clip-path:url(#clippath-8);}.cls-22{clip-path:url(#clippath-6);}.cls-23{clip-path:url(#clippath-5);}.cls-24{clip-path:url(#clippath-9);}.cls-25{clip-path:url(#clippath-20);}.cls-26{clip-path:url(#clippath-21);}.cls-27{clip-path:url(#clippath-24);}.cls-28{clip-path:url(#clippath-23);}.cls-29{clip-path:url(#clippath-22);}.cls-30{clip-path:url(#clippath-25);}.cls-31{clip-path:url(#clippath-14);}.cls-32{clip-path:url(#clippath-13);}.cls-33{clip-path:url(#clippath-12);}.cls-34{clip-path:url(#clippath-10);}.cls-35{clip-path:url(#clippath-15);}.cls-36{clip-path:url(#clippath-17);}.cls-37{clip-path:url(#clippath-16);}.cls-38{clip-path:url(#clippath-19);}.cls-39{clip-path:url(#clippath-11);}.cls-40{clip-path:url(#clippath-18);}.cls-41{mix-blend-mode:screen;opacity:.3;}.cls-7{fill:url(#linear-gradient-4);}.cls-8{fill:url(#linear-gradient-2);}.cls-9{fill:url(#linear-gradient-3);}.cls-10{fill:url(#linear-gradient-8);}.cls-11{fill:url(#linear-gradient-9);}.cls-12{fill:url(#linear-gradient-7);}.cls-13{fill:url(#linear-gradient-5);}.cls-14{fill:url(#linear-gradient-6);}.cls-42{isolation:isolate;}.cls-15{fill:#fff;}</style><clipPath id="clippath"><rect class="cls-2" x="5.54" y="4" width="574.72" height="666"/></clipPath><clipPath id="clippath-1"><rect class="cls-2" x="5.54" y="4" width="574.72" height="666"/></clipPath><clipPath id="clippath-2"><rect class="cls-2" x="338.97" y="-3.29" width="159.72" height="149.06"/></clipPath><clipPath id="clippath-3"><path class="cls-2" d="m357.17,4h123.34c4.87,0,8.82,3.95,8.82,8.82v123.09c0,4.87-3.95,8.82-8.82,8.82h-123.34c-4.87,0-8.82-3.95-8.82-8.82V12.82c0-4.87,3.95-8.82,8.82-8.82Z"/></clipPath><linearGradient id="linear-gradient" x1="2.66" y1="1082.53" x2="3.71" y2="1082.53" gradientTransform="translate(-190.31 207118.13) scale(191.26 -191.26)" gradientUnits="userSpaceOnUse"><stop offset="0" stop-color="#aa1e23"/><stop offset="0" stop-color="#aa1e23"/><stop offset=".57" stop-color="#c8c8c8"/><stop offset=".69" stop-color="#cbcbcb"/><stop offset=".8" stop-color="#d6d6d6"/><stop offset=".91" stop-color="#e8e8e8"/><stop offset="1" stop-color="#fff"/></linearGradient><clipPath id="clippath-4"><rect class="cls-2" x="240.13" y="46.34" width="206.22" height="195.47"/></clipPath><clipPath id="clippath-5"><path class="cls-2" d="m258.32,53.63h169.83c4.87,0,8.82,3.95,8.82,8.82v169.5c0,4.87-3.95,8.82-8.82,8.82h-169.83c-4.87,0-8.82-3.95-8.82-8.82V62.46c0-4.87,3.95-8.82,8.82-8.82Z"/></clipPath><linearGradient id="linear-gradient-2" x1="2.23" y1="1082.15" x2="3.27" y2="1082.15" gradientTransform="translate(-356.34 275374.95) scale(254.33 -254.33)" xlink:href="#linear-gradient"/><clipPath id="clippath-6"><rect class="cls-2" x="58.33" y="157.69" width="134.07" height="124.98"/></clipPath><clipPath id="clippath-7"><rect class="cls-2" x="67.7" y="164.98" width="115.32" height="116.65" rx="8.82" ry="8.82"/></clipPath><linearGradient id="linear-gradient-3" x1="2.95" y1="1082.88" x2="3.99" y2="1082.88" gradientTransform="translate(-420.69 170767.35) scale(157.49 -157.49)" xlink:href="#linear-gradient"/><clipPath id="clippath-8"><rect class="cls-2" x="442.45" y="167.27" width="115.08" height="105.82"/></clipPath><clipPath id="clippath-9"><path class="cls-2" d="m460.65,174.56h78.7c4.87,0,8.82,3.95,8.82,8.82v79.84c0,4.87-3.95,8.82-8.82,8.82h-78.7c-4.87,0-8.82-3.95-8.82-8.82v-79.85c0-4.87,3.95-8.82,8.82-8.82Z"/></clipPath><linearGradient id="linear-gradient-4" x1="3.41" y1="1083.17" x2="4.46" y2="1083.17" gradientTransform="translate(-17.74 142760.15) scale(131.59 -131.59)" xlink:href="#linear-gradient"/><clipPath id="clippath-10"><rect class="cls-2" x="353.62" y="203.97" width="155.75" height="149.06"/></clipPath><clipPath id="clippath-11"><rect class="cls-2" x="362.99" y="211.26" width="137.01" height="140.73" rx="8.82" ry="8.82"/></clipPath><linearGradient id="linear-gradient-5" x1="2.66" y1="1082.52" x2="3.7" y2="1082.52" gradientTransform="translate(-168.15 204403.56) scale(188.56 -188.56)" xlink:href="#linear-gradient"/><clipPath id="clippath-12"><rect class="cls-2" x="240.13" y="304.91" width="168.46" height="161.45"/></clipPath><clipPath id="clippath-13"><rect class="cls-2" x="249.5" y="312.2" width="149.71" height="153.12" rx="8.82" ry="8.82"/></clipPath><linearGradient id="linear-gradient-6" x1="2.49" y1="1082.39" x2="3.53" y2="1082.39" gradientTransform="translate(-294.79 222935.03) scale(205.61 -205.61)" xlink:href="#linear-gradient"/><clipPath id="clippath-14"><rect class="cls-2" x="96.01" y="193.18" width="194.71" height="188.3"/></clipPath><clipPath id="clippath-15"><path class="cls-2" d="m114.2,200.47h158.32c4.87,0,8.82,3.95,8.82,8.82v162.33c0,4.87-3.95,8.82-8.82,8.82H114.2c-4.87,0-8.82-3.95-8.82-8.82v-162.33c0-4.87,3.95-8.82,8.82-8.82Z"/></clipPath><linearGradient id="linear-gradient-7" x1="2.26" y1="1082.21" x2="3.3" y2="1082.21" gradientTransform="translate(-478.94 261813.41) scale(241.66 -241.66)" xlink:href="#linear-gradient"/><clipPath id="clippath-16"><rect class="cls-2" x="418.73" y="366.11" width="146.58" height="139.35"/></clipPath><clipPath id="clippath-17"><rect class="cls-2" x="428.1" y="373.4" width="127.84" height="131.02" rx="8.82" ry="8.82"/></clipPath><linearGradient id="linear-gradient-8" x1="2.77" y1="1082.59" x2="3.81" y2="1082.59" gradientTransform="translate(-85.65 190698.16) scale(175.74 -175.74)" xlink:href="#linear-gradient"/><clipPath id="clippath-18"><rect class="cls-2" x="274" y="417.06" width="201.34" height="195.47"/></clipPath><clipPath id="clippath-19"><path class="cls-2" d="m292.2,424.35h164.96c4.87,0,8.82,3.95,8.82,8.82v169.5c0,4.87-3.95,8.82-8.82,8.82h-164.96c-4.87,0-8.82-3.95-8.82-8.82v-169.5c0-4.87,3.95-8.82,8.82-8.82Z"/></clipPath><linearGradient id="linear-gradient-9" x1="2.21" y1="1082.12" x2="3.25" y2="1082.12" gradientTransform="translate(-310.4 272157.68) scale(251.03 -251.03)" xlink:href="#linear-gradient"/><clipPath id="clippath-20"><rect class="cls-2" x="160.15" y="391.42" width="153.38" height="149.06"/></clipPath><clipPath id="clippath-21"><path class="cls-2" d="m178.35,398.71h116.99c4.87,0,8.82,3.95,8.82,8.82v123.09c0,4.87-3.95,8.82-8.82,8.82h-116.99c-4.87,0-8.82-3.95-8.82-8.82v-123.09c0-4.87,3.95-8.82,8.82-8.82Z"/></clipPath><linearGradient id="linear-gradient-10" x1="2.62" y1="1082.53" x2="3.66" y2="1082.53" gradientTransform="translate(-349.6 202844.37) scale(186.95 -186.95)" xlink:href="#linear-gradient"/><clipPath id="clippath-22"><rect class="cls-2" x="61.44" y="446.64" width="158.21" height="152.13"/></clipPath><clipPath id="clippath-23"><path class="cls-2" d="m79.63,453.93h121.83c4.87,0,8.82,3.95,8.82,8.82v126.16c0,4.87-3.95,8.82-8.82,8.82h-121.83c-4.87,0-8.82-3.95-8.82-8.82v-126.16c0-4.87,3.95-8.82,8.82-8.82Z"/></clipPath><linearGradient id="linear-gradient-11" x1="2.55" y1="1082.5" x2="3.59" y2="1082.5" gradientTransform="translate(-449.63 208707.11) scale(192.32 -192.32)" xlink:href="#linear-gradient"/><clipPath id="clippath-24"><rect class="cls-2" x="345.36" y="518.54" width="158.21" height="152.51"/></clipPath><clipPath id="clippath-25"><rect class="cls-2" x="354.73" y="525.83" width="139.47" height="144.17" rx="8.82" ry="8.82"/></clipPath><linearGradient id="linear-gradient-12" x1="2.58" y1="1082.44" x2="3.62" y2="1082.44" gradientTransform="translate(-172.06 209043.31) scale(192.57 -192.57)" xlink:href="#linear-gradient"/></defs><g class="cls-42"><g id="Layer_2"><g class="cls-1"><g class="cls-16"><g class="cls-41"><g class="cls-19"><g class="cls-18"><rect class="cls-3" x="319.23" y="-25.23" width="199.2" height="199.2" transform="translate(70.09 317.94) rotate(-45)"/></g></g></g><g class="cls-41"><g class="cls-17"><g class="cls-23"><rect class="cls-8" x="210.79" y="14.76" width="264.89" height="264.89" transform="translate(-3.56 285.82) rotate(-45)"/></g></g></g><g class="cls-41"><g class="cls-22"><g class="cls-20"><rect class="cls-9" x="43.35" y="141.29" width="164.03" height="164.03" transform="translate(-121.18 154.05) rotate(-45)"/></g></g></g><g class="cls-41"><g class="cls-21"><g class="cls-24"><rect class="cls-7" x="431.47" y="154.77" width="137.05" height="137.05" transform="translate(-11.45 418.95) rotate(-45)"/></g></g></g><g class="cls-41"><g class="cls-34"><g class="cls-39"><rect class="cls-13" x="333.3" y="183.43" width="196.39" height="196.39" transform="translate(-72.76 387.6) rotate(-45)"/></g></g></g><g class="cls-41"><g class="cls-33"><g class="cls-32"><rect class="cls-14" x="217.29" y="281.69" width="214.14" height="214.14" transform="translate(-179.89 343.22) rotate(-45)"/></g></g></g><g class="cls-41"><g class="cls-31"><g class="cls-35"><rect class="cls-12" x="67.52" y="164.61" width="251.68" height="251.68" transform="translate(-148.75 221.8) rotate(-45)"/></g></g></g><g class="cls-41"><g class="cls-37"><g class="cls-36"><rect class="cls-10" x="400.5" y="347.39" width="183.04" height="183.04" transform="translate(-166.24 476.46) rotate(-45)"/></g></g></g><g class="cls-41"><g class="cls-40"><g class="cls-38"><rect class="cls-11" x="243.95" y="387.2" width="261.44" height="261.44" transform="translate(-256.48 416.63) rotate(-45)"/></g></g></g><g class="cls-41"><g class="cls-25"><g class="cls-26"><rect class="cls-6" x="139.49" y="371.72" width="194.71" height="194.71" transform="translate(-262.31 304.86) rotate(-45)"/></g></g></g><g class="cls-41"><g class="cls-29"><g class="cls-28"><rect class="cls-4" x="40.4" y="425.68" width="200.3" height="200.3" transform="translate(-330.65 253.39) rotate(-45)"/></g></g></g><g class="cls-41"><g class="cls-27"><g class="cls-30"><rect class="cls-5" x="324.18" y="497.63" width="200.56" height="200.56" transform="translate(-298.47 475.27) rotate(-45)"/></g></g></g><path class="cls-15" d="m404.41,196.24l-24.83-24.36h-69.94c-2.46,0-4.47-2.03-4.47-4.52v-66.3c0-2.49,2.01-4.52,4.47-4.52h90.3c2.46,0,4.47,2.03,4.47,4.52v95.18Zm-94.77-97.62c-1.32,0-2.39,1.09-2.39,2.44v66.3c0,1.34,1.07,2.44,2.39,2.44h70.79l21.9,21.48v-90.22c0-1.34-1.07-2.44-2.39-2.44h-90.3Z"/><path class="cls-15" d="m354.27,272.28l-31.98-31.53h-91.46c-3.04,0-5.52-2.51-5.52-5.61v-87.02c0-3.09,2.48-5.61,5.52-5.61h117.92c3.04,0,5.52,2.52,5.52,5.61v124.16Zm-123.44-127.69c-1.89,0-3.44,1.58-3.44,3.52v87.02c0,1.94,1.54,3.52,3.44,3.52h92.32l29.04,28.64v-119.18c0-1.94-1.54-3.52-3.44-3.52h-117.92Z"/><path class="cls-15" d="m149.98,358.75l-35.7-35.27H11.6c-3.34,0-6.07-2.77-6.07-6.17v-97.82c0-3.4,2.72-6.17,6.07-6.17h132.31c3.34,0,6.07,2.77,6.07,6.17v139.26ZM11.6,215.4c-2.2,0-3.98,1.84-3.98,4.09v97.82c0,2.25,1.79,4.09,3.98,4.09h103.53l32.76,32.37v-134.27c0-2.25-1.79-4.09-3.98-4.09H11.6Z"/><path class="cls-15" d="m580.26,299.73l-24.83-24.12h-69.94c-2.46,0-4.47-2.01-4.47-4.48v-65.65c0-2.47,2.01-4.48,4.47-4.48h90.3c2.46,0,4.47,2.01,4.47,4.48v94.25Zm-94.77-96.65c-1.32,0-2.39,1.08-2.39,2.4v65.65c0,1.32,1.07,2.4,2.39,2.4h70.79l21.9,21.27v-89.32c0-1.32-1.07-2.4-2.39-2.4h-90.3Z"/><path class="cls-15" d="m269.78,512.69l-28.43-27.69h-80.78c-2.76,0-5-2.26-5-5.03v-75.98c0-2.77,2.24-5.02,5-5.03h104.21c2.76,0,5,2.25,5,5.03v108.7Zm-109.21-111.64c-1.61,0-2.92,1.32-2.92,2.94v75.98c0,1.62,1.31,2.94,2.92,2.94h81.63l25.5,24.84v-103.76c0-1.62-1.31-2.94-2.92-2.94h-104.21Z"/><path class="cls-15" d="m430.48,488.46l-49.59-48.71h-144.49c-4.47,0-8.1-3.68-8.1-8.21v-136.73c0-4.53,3.64-8.21,8.1-8.21h185.97c4.47,0,8.1,3.68,8.1,8.21v193.66Zm-194.07-199.78c-3.32,0-6.02,2.75-6.02,6.13v136.73c0,3.38,2.7,6.13,6.02,6.13h145.34l46.65,45.83v-188.69c0-3.38-2.7-6.13-6.02-6.13h-185.97Z"/><path class="cls-15" d="m530.12,599.75l-46.04-45.19h-133.82c-4.18,0-7.58-3.44-7.58-7.68v-126.56c0-4.23,3.4-7.68,7.58-7.68h172.28c4.18,0,7.58,3.45,7.58,7.68v179.43Zm-179.87-185.03c-3.03,0-5.5,2.51-5.5,5.6v126.56c0,3.09,2.47,5.6,5.5,5.6h134.67l43.11,42.31v-174.47c0-3.09-2.47-5.6-5.5-5.6h-172.28Z"/></g></g></g></g></svg>