<?xml version="1.0" encoding="UTF-8"?><svg id="Export" xmlns="http://www.w3.org/2000/svg" viewBox="0 0 996.5 289.37"><defs><style>.cls-1,.cls-2,.cls-3,.cls-4{stroke-width:0px;}.cls-5{fill:#231f20;font-family:AvenirNextLTPro-Demi, 'Avenir Next LT Pro';font-size:54.28px;font-weight:300;}.cls-2{fill:#969696;}.cls-3{fill:#fff;}.cls-4{fill:#eb1f1f;}</style></defs><path class="cls-4" d="m366,192.36h6.84v38.43h-6.84v-38.43Z"/><path class="cls-4" d="m386.68,192.36h9.06l17.86,28.77h.11v-28.77h6.84v38.43h-8.68l-18.24-29.69h-.11v29.69h-6.84v-38.43Z"/><path class="cls-4" d="m434.39,192.36h13.62c2.5,0,5.01.33,7.54.98,2.53.65,4.81,1.73,6.84,3.23,2.03,1.5,3.67,3.47,4.94,5.92,1.27,2.44,1.9,5.47,1.9,9.09,0,3.37-.63,6.26-1.9,8.68-1.27,2.42-2.91,4.42-4.94,5.97-2.03,1.56-4.31,2.71-6.84,3.45-2.53.74-5.05,1.11-7.54,1.11h-13.62v-38.43Zm12.54,32.46c1.77,0,3.55-.21,5.32-.62,1.77-.42,3.37-1.12,4.8-2.12,1.43-.99,2.6-2.34,3.5-4.04.9-1.7,1.36-3.85,1.36-6.46,0-2.75-.45-4.99-1.36-6.73-.91-1.74-2.07-3.09-3.5-4.07-1.43-.98-3.03-1.65-4.8-2.01-1.77-.36-3.55-.54-5.32-.54h-5.7v26.6h5.7Z"/><path class="cls-4" d="m481.24,192.36h6.84v38.43h-6.84v-38.43Z"/><path class="cls-4" d="m513.97,192.36h5.92l16.56,38.43h-7.82l-3.58-8.79h-16.66l-3.47,8.79h-7.65l16.72-38.43Zm8.68,23.77l-5.92-15.63-6.02,15.63h11.94Z"/><text class="cls-5" transform="translate(704.33 230.79)"><tspan x="0" y="0"> </tspan></text><path class="cls-2" d="m562.9,224.82l14.82-14.55c1.19-1.16,2.14-2.32,2.85-3.5.71-1.18,1.06-2.52,1.06-4.04,0-1.81-.59-3.25-1.76-4.31-1.18-1.07-2.63-1.6-4.37-1.6-1.85,0-3.33.62-4.45,1.87-1.12,1.25-1.81,2.81-2.06,4.69l-6.35-.98c.18-1.59.63-3.06,1.36-4.4.72-1.34,1.65-2.5,2.77-3.47,1.12-.98,2.43-1.75,3.94-2.31,1.5-.56,3.14-.84,4.91-.84,1.66,0,3.27.24,4.8.71,1.54.47,2.9,1.19,4.1,2.14,1.19.96,2.14,2.14,2.85,3.53.71,1.39,1.06,3.01,1.06,4.86,0,1.23-.16,2.38-.49,3.45-.33,1.07-.77,2.07-1.33,3.01-.56.94-1.21,1.84-1.95,2.69-.74.85-1.55,1.67-2.42,2.47l-11.07,10.58h17.31v5.97h-25.57v-5.97Z"/><path class="cls-2" d="m594.65,211.47c0-3.08.52-5.85,1.55-8.33,1.03-2.48,2.46-4.59,4.29-6.32,1.83-1.74,4-3.08,6.51-4.02,2.51-.94,5.26-1.41,8.22-1.41s5.77.47,8.3,1.41c2.53.94,4.72,2.28,6.57,4.02,1.85,1.74,3.28,3.85,4.32,6.32,1.03,2.48,1.55,5.26,1.55,8.33s-.52,5.75-1.55,8.22c-1.03,2.48-2.47,4.61-4.32,6.4-1.85,1.79-4.04,3.19-6.57,4.18-2.53.99-5.3,1.49-8.3,1.49s-5.71-.5-8.22-1.49c-2.52-.99-4.69-2.39-6.51-4.18-1.83-1.79-3.26-3.93-4.29-6.4-1.03-2.48-1.55-5.22-1.55-8.22Zm7.44,0c0,2.06.32,3.95.95,5.67.63,1.72,1.54,3.21,2.71,4.48,1.18,1.27,2.57,2.25,4.18,2.96,1.61.71,3.39,1.06,5.35,1.06s3.75-.35,5.37-1.06,3.03-1.69,4.21-2.96c1.18-1.27,2.08-2.76,2.71-4.48.63-1.72.95-3.61.95-5.67s-.32-3.84-.95-5.54c-.63-1.7-1.53-3.18-2.69-4.45-1.16-1.27-2.55-2.26-4.18-2.99-1.63-.72-3.44-1.09-5.43-1.09s-3.79.36-5.4,1.09c-1.61.72-2.99,1.72-4.15,2.99-1.16,1.27-2.05,2.75-2.69,4.45-.63,1.7-.95,3.55-.95,5.54Z"/><path class="cls-2" d="m642.09,224.82l14.82-14.55c1.19-1.16,2.14-2.32,2.85-3.5.71-1.18,1.06-2.52,1.06-4.04,0-1.81-.59-3.25-1.76-4.31-1.18-1.07-2.63-1.6-4.37-1.6-1.85,0-3.33.62-4.45,1.87-1.12,1.25-1.81,2.81-2.06,4.69l-6.35-.98c.18-1.59.63-3.06,1.36-4.4.72-1.34,1.65-2.5,2.77-3.47,1.12-.98,2.43-1.75,3.94-2.31,1.5-.56,3.14-.84,4.91-.84,1.66,0,3.27.24,4.8.71,1.54.47,2.9,1.19,4.1,2.14,1.19.96,2.14,2.14,2.85,3.53.71,1.39,1.06,3.01,1.06,4.86,0,1.23-.16,2.38-.49,3.45-.33,1.07-.77,2.07-1.33,3.01-.56.94-1.21,1.84-1.95,2.69-.74.85-1.55,1.67-2.42,2.47l-11.07,10.58h17.31v5.97h-25.57v-5.97Z"/><path class="cls-2" d="m684.05,208.16h1.74c.98,0,1.94-.08,2.9-.24.96-.16,1.84-.46,2.63-.9.8-.43,1.44-1.02,1.93-1.76.49-.74.73-1.71.73-2.9,0-.87-.16-1.65-.49-2.33-.33-.69-.77-1.27-1.33-1.74-.56-.47-1.21-.83-1.95-1.09-.74-.25-1.51-.38-2.31-.38-1.59,0-2.91.45-3.96,1.36-1.05.9-1.77,2.1-2.17,3.58l-6.13-1.57c.33-1.3.88-2.49,1.66-3.56.78-1.07,1.72-1.99,2.82-2.77,1.1-.78,2.34-1.38,3.72-1.82,1.38-.43,2.82-.65,4.34-.65,1.66,0,3.25.23,4.74.68,1.5.45,2.81,1.12,3.94,2.01,1.13.89,2.02,1.98,2.66,3.28.65,1.3.97,2.82.97,4.56,0,2.06-.62,3.9-1.87,5.51-1.25,1.61-2.92,2.67-5.02,3.18v.11c2.35.47,4.26,1.53,5.73,3.18,1.47,1.65,2.2,3.66,2.2,6.05,0,1.99-.39,3.73-1.16,5.21-.77,1.48-1.79,2.71-3.07,3.69s-2.71,1.71-4.3,2.2c-1.59.49-3.2.73-4.83.73s-3.17-.17-4.61-.52c-1.45-.34-2.78-.88-3.99-1.6-1.21-.72-2.28-1.66-3.2-2.82-.92-1.16-1.64-2.53-2.14-4.12l6.08-1.9c.47,1.52,1.35,2.8,2.63,3.85,1.28,1.05,2.96,1.57,5.02,1.57.83,0,1.67-.12,2.52-.35.85-.23,1.61-.61,2.28-1.11.67-.51,1.21-1.16,1.63-1.95.42-.8.62-1.77.62-2.93,0-1.23-.3-2.27-.9-3.12-.6-.85-1.35-1.52-2.25-2.01-.9-.49-1.91-.84-3.01-1.06-1.1-.22-2.16-.33-3.18-.33h-1.63v-5.21Z"/><path class="cls-1" d="m422.78,87.72c-2.05-2.61-4.74-4.69-8.05-6.23-3.31-1.54-6.51-2.31-9.59-2.31-1.59,0-3.2.14-4.83.42-1.63.28-3.1.82-4.41,1.61-1.31.79-2.4,1.82-3.29,3.08-.89,1.26-1.33,2.87-1.33,4.83,0,1.68.35,3.08,1.05,4.2.7,1.12,1.73,2.1,3.08,2.94,1.35.84,2.96,1.61,4.83,2.31,1.87.7,3.97,1.43,6.3,2.17,3.36,1.12,6.86,2.36,10.5,3.71,3.64,1.35,6.96,3.15,9.94,5.39,2.99,2.24,5.46,5.02,7.42,8.33,1.96,3.32,2.94,7.44,2.94,12.39,0,5.69-1.05,10.61-3.15,14.77s-4.92,7.58-8.47,10.29c-3.55,2.71-7.61,4.71-12.18,6.02-4.57,1.3-9.29,1.96-14.14,1.96-7.1,0-13.95-1.24-20.58-3.71-6.63-2.47-12.14-6-16.52-10.57l15.68-15.96c2.43,2.99,5.62,5.49,9.59,7.49,3.97,2.01,7.91,3.01,11.83,3.01,1.77,0,3.5-.18,5.18-.56,1.68-.37,3.15-.98,4.41-1.82,1.26-.84,2.26-1.96,3.01-3.36.75-1.4,1.12-3.08,1.12-5.04s-.47-3.45-1.4-4.76c-.94-1.3-2.26-2.49-3.99-3.57-1.73-1.07-3.87-2.05-6.44-2.94-2.57-.89-5.48-1.84-8.75-2.87-3.17-1.03-6.28-2.24-9.31-3.64-3.04-1.4-5.74-3.2-8.12-5.39-2.38-2.19-4.29-4.85-5.74-7.98-1.45-3.13-2.17-6.93-2.17-11.41,0-5.51,1.12-10.22,3.36-14.14,2.24-3.92,5.18-7.14,8.82-9.66,3.64-2.52,7.74-4.36,12.32-5.53,4.57-1.16,9.19-1.75,13.86-1.75,5.6,0,11.32,1.03,17.15,3.08,5.83,2.05,10.94,5.09,15.33,9.1l-15.26,16.1Z"/><path class="cls-1" d="m539.75,140.01c-2.01,4.9-4.88,9.1-8.61,12.6-3.74,3.5-8.24,6.23-13.51,8.19-5.27,1.96-11.13,2.94-17.57,2.94s-12.41-.98-17.64-2.94c-5.23-1.96-9.66-4.69-13.3-8.19-3.64-3.5-6.44-7.7-8.4-12.6-1.96-4.9-2.94-10.34-2.94-16.31v-61.74h23.8v59.78c0,2.71.35,5.27,1.05,7.7.7,2.43,1.77,4.6,3.22,6.51,1.45,1.92,3.36,3.43,5.74,4.55,2.38,1.12,5.25,1.68,8.61,1.68s6.23-.56,8.61-1.68c2.38-1.12,4.31-2.64,5.81-4.55,1.49-1.91,2.56-4.08,3.22-6.51.65-2.43.98-5,.98-7.7v-59.78h23.94v61.74c0,5.98-1,11.41-3.01,16.31"/><path class="cls-1" d="m638.74,161.22c-6.49,1.59-13.56,2.38-21.21,2.38s-15.24-1.26-21.91-3.78c-6.67-2.52-12.41-6.07-17.22-10.64-4.81-4.57-8.56-10.06-11.27-16.45-2.71-6.39-4.06-13.51-4.06-21.36s1.38-15.12,4.13-21.56c2.76-6.44,6.56-11.92,11.41-16.45,4.85-4.53,10.54-8,17.08-10.43,6.53-2.42,13.58-3.64,21.14-3.64s15.12,1.19,21.84,3.57c6.72,2.38,12.18,5.58,16.38,9.59l-15.12,17.22c-2.33-2.7-5.41-4.92-9.24-6.65s-8.17-2.59-13.02-2.59c-4.2,0-8.08.77-11.62,2.31-3.55,1.54-6.63,3.69-9.24,6.44-2.61,2.75-4.64,6.02-6.09,9.8-1.45,3.78-2.17,7.91-2.17,12.39s.65,8.78,1.96,12.6c1.3,3.83,3.24,7.12,5.81,9.87,2.56,2.76,5.74,4.91,9.52,6.44,3.78,1.54,8.1,2.31,12.95,2.31,2.8,0,5.46-.21,7.98-.63,2.52-.42,4.85-1.1,7-2.03v-18.06h-18.9v-19.32h40.88v52.5c-4.86,2.52-10.52,4.57-17.01,6.16"/><path class="cls-1" d="m751.93,159.33c-6.44,2.94-13.86,4.41-22.26,4.41-7.65,0-14.72-1.26-21.21-3.78-6.49-2.52-12.11-6.09-16.87-10.71-4.76-4.62-8.49-10.15-11.2-16.59s-4.06-13.53-4.06-21.28,1.38-15.12,4.13-21.56c2.76-6.44,6.56-11.92,11.41-16.45,4.85-4.52,10.55-8,17.08-10.43,6.53-2.42,13.58-3.64,21.14-3.64,7,0,13.88,1.24,20.65,3.71,6.77,2.47,12.25,6.09,16.45,10.85l-16.24,16.24c-2.24-3.08-5.18-5.37-8.82-6.86-3.64-1.49-7.38-2.24-11.2-2.24-4.2,0-8.05.77-11.55,2.31-3.5,1.54-6.51,3.66-9.03,6.37-2.52,2.71-4.48,5.91-5.88,9.59-1.4,3.69-2.1,7.72-2.1,12.11s.7,8.59,2.1,12.32c1.4,3.73,3.33,6.93,5.81,9.59,2.47,2.66,5.44,4.74,8.89,6.23,3.45,1.5,7.23,2.24,11.34,2.24,4.76,0,8.91-.93,12.46-2.8,3.55-1.87,6.39-4.29,8.54-7.28l16.66,15.68c-4.39,5.04-9.8,9.03-16.24,11.97"/><polygon class="cls-1" points="967.12 161.08 927.22 96.26 926.8 96.26 927.36 161.08 904.12 161.08 904.12 61.96 931.42 61.96 971.18 126.64 971.6 126.64 971.04 61.96 994.28 61.96 994.28 161.08 967.12 161.08"/><path class="cls-1" d="m863.62,111.38c0,16.73-13.77,30.29-30.75,30.29s-30.75-13.56-30.75-30.29,13.76-30.29,30.75-30.29,30.75,13.56,30.75,30.29m23.17,0c0-29.34-24.14-53.13-53.92-53.13s-53.92,23.78-53.92,53.13,24.14,53.13,53.92,53.13,53.92-23.78,53.92-53.13"/><path class="cls-4" d="m289.59,262.58V27c0-14.62-11.86-26.47-26.47-26.47H27.05C12.43.53.57,12.39.57,27v235.57c0,14.62,11.86,26.47,26.47,26.47h236.11c14.62,0,26.47-11.86,26.47-26.47"/><path class="cls-3" d="m232.94,240.51l-42.24-40.88H63.44c-3.42,0-6.22-2.76-6.22-6.22v-118.24c0-3.42,2.76-6.22,6.22-6.22h163.32c3.42,0,6.22,2.76,6.22,6.22v165.3l-.04.04Z"/></svg>